<svg width="32" height="32" viewBox="0 0 80 80" fill="none" xmlns="http://www.w3.org/2000/svg">
<g clip-path="url(#clip0_34_24)">
<path fill-rule="evenodd" clip-rule="evenodd" d="M24.9164 50.141C23.6169 46.5585 23.513 42.6513 24.6203 39.0048C25.7277 35.3583 27.9866 32.1687 31.0588 29.9138C34.1309 27.6588 37.851 26.4598 41.6617 26.4965C45.4725 26.5331 49.1688 27.8034 52.1971 30.117C55.2253 32.4306 57.4225 35.6631 58.4595 39.3302C59.4965 42.9973 59.3175 46.9017 57.9494 50.4586C56.5812 54.0155 54.0975 57.0333 50.8703 59.0602C47.6431 61.0871 43.846 62.0139 40.0479 61.7017C39.5931 61.6828 39.1485 61.8406 38.8073 62.142C38.4661 62.4433 38.2547 62.865 38.2173 63.3188C38.18 63.7725 38.3196 64.2231 38.6069 64.5762C38.8942 64.9294 39.3069 65.1577 39.7588 65.2135C44.3167 65.5879 48.8732 64.4755 52.7459 62.0429C56.6185 59.6104 59.5988 55.9886 61.2403 51.72C62.8818 47.4515 63.0962 42.7661 61.8513 38.3655C60.6063 33.9649 57.9692 30.0861 54.3348 27.3101C50.7004 24.5341 46.2645 23.0104 41.6914 22.9671C37.1184 22.9238 32.6543 24.3633 28.9681 27.07C25.2818 29.7767 22.5717 33.6048 21.2437 37.981C19.9157 42.3573 20.0413 47.0459 21.6017 51.3448L24.9164 50.141Z" fill="white"/>
<path d="M29.7758 48.3762L16.7424 53.1096C16.5849 53.1668 16.447 53.2677 16.3449 53.4005C16.2427 53.5333 16.1805 53.6924 16.1655 53.8593C16.1505 54.0261 16.1834 54.1938 16.2603 54.3426C16.3371 54.4915 16.4548 54.6154 16.5995 54.6997L25.9572 60.1558C26.0688 60.2208 26.1934 60.2605 26.3221 60.272C26.4508 60.2836 26.5804 60.2667 26.7018 60.2226C26.8233 60.1785 26.9335 60.1082 27.0248 60.0168C27.1161 59.9254 27.1861 59.815 27.23 59.6935L30.9058 49.5041C30.9626 49.3465 30.9734 49.176 30.9368 49.0125C30.9002 48.849 30.8178 48.6994 30.6992 48.581C30.5807 48.4627 30.4309 48.3805 30.2673 48.3443C30.1038 48.308 29.9333 48.3191 29.7758 48.3762Z" fill="white"/>
<path fill-rule="evenodd" clip-rule="evenodd" d="M34.5471 18.7035C34.1361 17.3496 34.1748 15.8991 34.6574 14.5691C35.14 13.2391 36.0405 12.1012 37.224 11.3259C38.4075 10.5506 39.8104 10.1796 41.2224 10.2685C42.6345 10.3574 43.9797 10.9014 45.0567 11.819C46.1337 12.7366 46.8844 13.9784 47.1963 15.3584C47.5083 16.7384 47.3648 18.1824 46.7873 19.474C46.2098 20.7656 45.2294 21.8354 43.9929 22.523C42.7564 23.2107 41.3304 23.4792 39.9285 23.2885C39.7602 23.2725 39.5923 23.3222 39.4598 23.4272C39.3274 23.5322 39.2407 23.6843 39.2178 23.8518C39.195 24.0193 39.2379 24.1891 39.3374 24.3257C39.4369 24.4623 39.5855 24.5551 39.7519 24.5847C41.4342 24.8136 43.1455 24.4912 44.6293 23.6659C46.1131 22.8406 47.2896 21.5567 47.9825 20.0067C48.6754 18.4566 48.8474 16.7238 48.4729 15.0677C48.0983 13.4117 47.1972 11.9216 45.9047 10.8206C44.6122 9.71962 42.9977 9.06705 41.3032 8.96064C39.6086 8.85422 37.9252 9.29969 36.5051 10.2303C35.085 11.1609 34.0046 12.5266 33.4258 14.1228C32.847 15.719 32.8009 17.4597 33.2944 19.0843L34.5471 18.7035Z" fill="white"/>
<path d="M36.3835 18.1452L31.458 19.6425C31.3985 19.6606 31.3454 19.6953 31.3049 19.7425C31.2644 19.7897 31.2382 19.8475 31.2293 19.9091C31.2204 19.9706 31.2293 20.0334 31.2549 20.0901C31.2804 20.1468 31.3216 20.1951 31.3736 20.2292L34.735 22.4369C34.7751 22.4632 34.8205 22.4804 34.868 22.4872C34.9155 22.494 34.9638 22.4903 35.0097 22.4764C35.0556 22.4624 35.0979 22.4386 35.1335 22.4065C35.1692 22.3744 35.1973 22.3348 35.216 22.2907L36.7801 18.5857C36.8043 18.5284 36.8116 18.4654 36.8013 18.4041C36.791 18.3428 36.7634 18.2856 36.7218 18.2394C36.6802 18.1932 36.6262 18.1598 36.5663 18.1431C36.5064 18.1264 36.443 18.1272 36.3835 18.1452Z" fill="white"/>
<path d="M4 63.5108L73.3551 63.5108" stroke="white" stroke-width="4" stroke-linecap="round"/>
<path d="M75.6249 64.3809L69.5951 69.7293C68.8846 70.3605 67.7714 69.8475 67.7714 68.8896V58.1929C67.7712 57.9785 67.832 57.7686 67.9465 57.5883C68.0609 57.408 68.2242 57.265 68.4167 57.1764C68.6093 57.0878 68.823 57.0574 69.0321 57.0887C69.2413 57.1201 69.4372 57.2119 69.5962 57.3531L75.6238 62.7015C75.742 62.8062 75.8367 62.9352 75.9016 63.0801C75.9664 63.2249 76 63.3821 76 63.5412C76 63.7003 75.9664 63.8575 75.9016 64.0023C75.8367 64.1472 75.742 64.2763 75.6238 64.3809H75.6249Z" fill="white"/>
<g clip-path="url(#clip1_34_24)">
<path d="M46.5179 44.973C49.2298 41.9261 50.3712 39.4669 50.798 37.6637C51.0448 36.621 51.0495 35.8064 50.986 35.2362C50.9614 35.0126 50.9189 34.7913 50.8591 34.5744C50.834 34.4825 50.8034 34.3922 50.7674 34.304C50.6816 34.1113 50.5699 34.0278 50.3536 33.9561C50.2917 33.9359 50.2289 33.9182 50.1655 33.9032C49.9451 33.8507 49.7212 33.8141 49.4955 33.7939C48.9195 33.7422 48.0966 33.7586 47.0504 34.0149C45.2448 34.4545 42.7974 35.5936 39.8081 38.2514L36.9869 38.5312H36.9798C36.3019 38.6066 35.67 38.9109 35.1884 39.394L32.3883 42.1988C32.2996 42.2881 32.2411 42.403 32.2211 42.5272C32.2011 42.6515 32.2206 42.7789 32.2768 42.8915C32.333 43.0042 32.4231 43.0963 32.5344 43.1551C32.6457 43.2139 32.7726 43.2363 32.8973 43.2191L35.1261 42.9006C35.4552 42.8535 35.822 42.9158 36.2487 43.0557C36.5214 43.1451 36.7624 43.2438 37.0186 43.3472L37.2573 43.4448C37.4877 44.404 38.0331 45.3021 38.756 46.0251C39.4766 46.7468 40.3735 47.2946 41.3316 47.5262L41.428 47.7636C41.5326 48.0199 41.6313 48.2621 41.7207 48.536C41.8594 48.9627 41.9229 49.3306 41.8758 49.6597L41.5573 51.8932C41.5405 52.0177 41.563 52.1443 41.6217 52.2553C41.6805 52.3663 41.7724 52.4561 41.8848 52.5122C41.9972 52.5683 42.1242 52.5879 42.2483 52.5682C42.3723 52.5484 42.487 52.4904 42.5764 52.4022L45.3765 49.5974C45.8585 49.1155 46.1617 48.4819 46.237 47.8036L46.5179 44.973ZM46.6472 40.6248C45.7103 41.5652 44.3785 41.7544 43.6755 41.0503C42.9726 40.345 43.163 39.0131 44.0999 38.0739C45.038 37.1347 46.3686 36.9454 47.0716 37.6496C47.7745 38.3537 47.5853 39.6855 46.6484 40.6248H46.6472Z" fill="white"/>
<path d="M38.3308 46.4506C38.9547 47.0828 39.6694 47.6185 40.4514 48.0399C39.1372 49.2236 34.6573 50.4238 34.5104 50.2769C34.3622 50.1276 35.3767 45.3526 36.6721 44.1877C37.0789 44.9988 37.656 45.7747 38.3308 46.4506Z" fill="white"/>
</g>
</g>
<defs>
<clipPath id="clip0_34_24">
<rect width="80" height="80" fill="white"/>
</clipPath>
<clipPath id="clip1_34_24">
<rect width="18.8082" height="18.8082" fill="white" transform="translate(32.2122 33.7703)"/>
</clipPath>
</defs>
</svg>
