<svg width="32" height="32" viewBox="0 0 80 80" fill="none" xmlns="http://www.w3.org/2000/svg">
<g clip-path="url(#clip0_38_119)">
<path d="M55.903 35.5H73.597C73.8108 35.5001 74.0201 35.5611 74.2004 35.6758C74.3808 35.7906 74.5247 35.9543 74.6154 36.1479C74.7061 36.3415 74.7397 36.5569 74.7123 36.7689C74.685 36.9809 74.5978 37.1807 74.461 37.345L65.614 47.965C65.5084 48.0916 65.3763 48.1935 65.227 48.2634C65.0777 48.3333 64.9149 48.3695 64.75 48.3695C64.5851 48.3695 64.4223 48.3333 64.273 48.2634C64.1237 48.1935 63.9916 48.0916 63.886 47.965L55.039 37.345C54.9022 37.1807 54.815 36.9809 54.7877 36.7689C54.7603 36.5569 54.794 36.3415 54.8846 36.1479C54.9753 35.9543 55.1192 35.7906 55.2996 35.6758C55.4799 35.5611 55.6892 35.5001 55.903 35.5ZM6.40301 44.5H24.097C24.3108 44.4999 24.5201 44.4389 24.7005 44.3242C24.8808 44.2095 25.0247 44.0457 25.1154 43.8521C25.2061 43.6585 25.2397 43.4431 25.2123 43.2311C25.185 43.0191 25.0978 42.8193 24.961 42.655L16.114 32.035C16.0084 31.9084 15.8763 31.8065 15.727 31.7366C15.5777 31.6667 15.4149 31.6305 15.25 31.6305C15.0852 31.6305 14.9223 31.6667 14.773 31.7366C14.6237 31.8065 14.4916 31.9084 14.386 32.035L5.53901 42.655C5.4022 42.8193 5.31501 43.0191 5.28767 43.2311C5.26033 43.4431 5.29395 43.6585 5.38461 43.8521C5.47526 44.0457 5.6192 44.2095 5.79956 44.3242C5.97992 44.4389 6.18924 44.4999 6.40301 44.5Z" fill="black"/>
<path fill-rule="evenodd" clip-rule="evenodd" d="M40 17.5C33.016 17.5 26.77 20.6815 22.6435 25.681C22.4592 25.9198 22.2288 26.1192 21.966 26.2672C21.7031 26.4152 21.4132 26.5088 21.1135 26.5425C20.8137 26.5762 20.5102 26.5493 20.2211 26.4633C19.9319 26.3774 19.663 26.2342 19.4303 26.0423C19.1976 25.8503 19.0059 25.6135 18.8665 25.346C18.7272 25.0785 18.6431 24.7856 18.6192 24.4849C18.5952 24.1842 18.632 23.8818 18.7274 23.5956C18.8227 23.3094 18.9746 23.0453 19.174 22.819C22.4689 18.8299 26.8402 15.871 31.768 14.2944C36.6958 12.7178 41.9728 12.5898 46.9713 13.9256C51.9698 15.2614 56.4794 18.0047 59.9639 21.8294C63.4483 25.654 65.7608 30.399 66.6265 35.5H62.05C61.0126 30.4179 58.2512 25.8502 54.2331 22.5701C50.2149 19.29 45.1869 17.4989 40 17.5ZM17.95 44.5C18.8019 48.6608 20.8136 52.4957 23.7527 55.5616C26.6917 58.6276 30.4382 60.7994 34.5593 61.8263C38.6805 62.8531 43.008 62.6931 47.042 61.3647C51.076 60.0363 54.6519 57.5936 57.3565 54.319C57.5408 54.0802 57.7712 53.8808 58.034 53.7328C58.2969 53.5848 58.5868 53.4912 58.8866 53.4575C59.1863 53.4238 59.4898 53.4507 59.7789 53.5366C60.0681 53.6226 60.337 53.7658 60.5697 53.9577C60.8024 54.1497 60.9941 54.3865 61.1335 54.654C61.2728 54.9215 61.3569 55.2144 61.3809 55.515C61.4048 55.8158 61.368 56.1182 61.2727 56.4044C61.1773 56.6906 61.0254 56.9547 60.826 57.181C57.5312 61.1701 53.1599 64.1289 48.232 65.7055C43.3042 67.2821 38.0272 67.4102 33.0287 66.0744C28.0302 64.7386 23.5206 61.9953 20.0362 58.1706C16.5517 54.346 14.2392 49.601 13.3735 44.5H17.95Z" fill="black"/>
<g clip-path="url(#clip1_38_119)">
<path d="M45.2125 41.9125C48.0963 38.6725 49.31 36.0575 49.7638 34.14C50.0263 33.0313 50.0313 32.165 49.9638 31.5588C49.9375 31.321 49.8924 31.0856 49.8288 30.855C49.8021 30.7573 49.7696 30.6613 49.7313 30.5675C49.64 30.3625 49.5213 30.2738 49.2913 30.1975C49.2254 30.176 49.1587 30.1572 49.0913 30.1413C48.8569 30.0854 48.6188 30.0465 48.3788 30.025C47.7663 29.97 46.8913 29.9875 45.7788 30.26C43.8588 30.7275 41.2563 31.9388 38.0775 34.765L35.0775 35.0625H35.07C34.3491 35.1427 33.6771 35.4663 33.165 35.98L30.1875 38.9625C30.0932 39.0575 30.031 39.1796 30.0098 39.3118C29.9885 39.4439 30.0092 39.5794 30.069 39.6992C30.1287 39.8189 30.2245 39.9169 30.3428 39.9794C30.4612 40.0419 30.5962 40.0657 30.7288 40.0475L33.0988 39.7088C33.4488 39.6588 33.8388 39.725 34.2925 39.8738C34.5825 39.9688 34.8388 40.0738 35.1113 40.1838L35.365 40.2875C35.61 41.3075 36.19 42.2625 36.9588 43.0313C37.725 43.7988 38.6788 44.3813 39.6975 44.6275L39.8 44.88C39.9113 45.1525 40.0163 45.41 40.1113 45.7013C40.2588 46.155 40.3263 46.5463 40.2763 46.8963L39.9375 49.2713C39.9196 49.4036 39.9436 49.5382 40.0061 49.6563C40.0685 49.7743 40.1663 49.8698 40.2858 49.9295C40.4053 49.9892 40.5404 50.01 40.6723 49.989C40.8042 49.968 40.9262 49.9063 41.0213 49.8125L43.9988 46.83C44.5113 46.3175 44.8338 45.6438 44.9138 44.9225L45.2125 41.9125ZM45.35 37.2888C44.3538 38.2888 42.9375 38.49 42.19 37.7413C41.4425 36.9913 41.645 35.575 42.6413 34.5763C43.6388 33.5775 45.0538 33.3763 45.8013 34.125C46.5488 34.8738 46.3475 36.29 45.3513 37.2888H45.35Z" fill="black"/>
<path d="M36.5062 43.4837C37.1697 44.1561 37.9297 44.7257 38.7612 45.1737C37.3637 46.4325 32.6 47.7087 32.4437 47.5525C32.2862 47.3937 33.365 42.3162 34.7425 41.0775C35.175 41.94 35.7887 42.765 36.5062 43.4837Z" fill="black"/>
</g>
</g>
<defs>
<clipPath id="clip0_38_119">
<rect width="80" height="80" fill="white"/>
</clipPath>
<clipPath id="clip1_38_119">
<rect width="20" height="20" fill="white" transform="translate(30 30)"/>
</clipPath>
</defs>
</svg>
