<svg width="32" height="32" viewBox="0 0 80 80" fill="none" xmlns="http://www.w3.org/2000/svg">
<g clip-path="url(#clip0_40_232)">
<g clip-path="url(#clip1_40_232)">
<path d="M16.6795 65.2955L12 8.10736L67.8848 8.22229L62.9367 65.2955L40.1533 71.8927L16.6795 65.2955Z" fill="#1B73BA"/>
<path d="M40.1533 66.3695V13.5539L63.167 13.6305L59.0631 60.8847L40.1533 66.3695Z" fill="#1C88C7"/>
<path d="M57.4519 20.3047H22.0493L23.0084 27.2082H39.8081L23.277 34.3043L24.2356 40.978H48.5919L47.7095 50.2981L39.4629 51.9093L31.9838 49.9917L31.4082 44.6984H24.5425L25.4628 55.7068L40.1916 59.8107L54.307 55.3232L56.1098 33.8053H41.1885L57.4515 27.055L57.4519 20.3047Z" fill="white"/>
</g>
</g>
<defs>
<clipPath id="clip0_40_232">
<rect width="80" height="80" fill="white"/>
</clipPath>
<clipPath id="clip1_40_232">
<rect width="55.8848" height="64" fill="white" transform="translate(12 8)"/>
</clipPath>
</defs>
</svg>
