<svg width="32" height="32" viewBox="0 0 80 80" fill="none" xmlns="http://www.w3.org/2000/svg">
<g clip-path="url(#clip0_40_165)">
<path d="M16.5 23.5V10.6074H18.5199V15.9793H23.8708V10.6074H25.8907V23.5H23.8708V17.6983H18.5199V23.5H16.5Z" fill="black"/>
<path d="M31.704 23.5V12.219H27.93V10.6074H37.6396L37.3915 12.219H33.7238V23.5H31.704Z" fill="black"/>
<path d="M39.3531 23.5L39.9378 10.7328C40.7411 10.5776 41.5207 10.5 42.2767 10.5C42.5129 10.5 42.6842 10.6313 42.7905 10.8939L46.1747 20.241L49.5589 10.8939C49.6652 10.6313 49.8365 10.5 50.0727 10.5C50.9232 10.5 51.7028 10.5776 52.4115 10.7328L52.9962 23.5H51.0649L50.7637 12.5234L47.5213 21.7094C46.5291 21.8765 45.8439 21.9601 45.466 21.9601C45.088 21.9601 44.8517 21.8287 44.7572 21.5661L41.5856 12.5234L41.2844 23.5H39.3531Z" fill="black"/>
<path d="M56.643 23.5V10.6074H58.6629V21.781H63.5L63.2519 23.5H56.643Z" fill="black"/>
<path d="M22 29.5C20.4087 29.5 18.8826 30.1321 17.7574 31.2574C16.6321 32.3826 16 33.9087 16 35.5V59.53C16.0079 61.1161 16.6436 62.6345 17.7679 63.7533C18.8923 64.872 20.4139 65.5 22 65.5H38.5C38.8978 65.5 39.2794 65.342 39.5607 65.0607C39.842 64.7794 40 64.3978 40 64C40 63.6022 39.842 63.2206 39.5607 62.9393C39.2794 62.658 38.8978 62.5 38.5 62.5H22C21.3396 62.5001 20.6977 62.2823 20.1737 61.8803C19.6497 61.4784 19.273 60.9148 19.102 60.277L36.022 49.864L40 52.249L61 39.649V49C61 49.3978 61.158 49.7794 61.4393 50.0607C61.7206 50.342 62.1022 50.5 62.5 50.5C62.8978 50.5 63.2794 50.342 63.5607 50.0607C63.842 49.7794 64 49.3978 64 49V35.5C64 33.9087 63.3679 32.3826 62.2426 31.2574C61.1174 30.1321 59.5913 29.5 58 29.5H22ZM33.124 48.124L19 56.815V39.649L33.124 48.124ZM19 36.151V35.5C19 34.7044 19.3161 33.9413 19.8787 33.3787C20.4413 32.8161 21.2044 32.5 22 32.5H58C58.7957 32.5 59.5587 32.8161 60.1213 33.3787C60.6839 33.9413 61 34.7044 61 35.5V36.151L40 48.751L19 36.151Z" fill="black"/>
<path d="M57.5878 64.5543C60.3958 64.5543 62 62.1057 62 58.7686V58.1686C62 53.5857 58.6804 49.5 52.7864 49.5H52.6891C46.9479 49.5 43 53.3857 43 59.3057V59.9171C43 66.1286 46.998 69.5 52.336 69.5H52.4583C54.1097 69.5 55.2886 69.2886 55.8974 69V66.9143C55.2163 67.2286 54.0263 67.4286 52.6168 67.4286H52.4944C48.7856 67.4286 45.3465 65.1771 45.3465 59.8429V59.3943C45.3465 54.66 48.288 51.6114 52.6863 51.6114H52.7975C57.0651 51.6114 59.7035 54.6114 59.7035 58.2571V58.5943C59.7035 61.38 58.8028 62.5657 57.927 62.5657C57.282 62.5657 56.7871 62.1429 56.7871 61.3657V55.1086H54.2682V56.7343H54.1848C53.9513 55.8829 53.1617 54.9343 51.5325 54.9343C49.3695 54.9343 48.0322 56.52 48.0322 58.9343V60.4429C48.0322 62.9914 49.3945 64.54 51.5353 64.54C52.8447 64.54 54.0263 63.8914 54.3544 62.7029H54.474C54.802 63.9029 56.1893 64.5543 57.5878 64.5543ZM50.7679 60.0171V59.3686C50.7679 57.8086 51.399 57.1086 52.361 57.1086C53.1867 57.1086 53.9513 57.6571 53.9513 59.1314V60.18C53.9513 61.8171 53.2479 62.3057 52.3832 62.3057C51.399 62.3057 50.7679 61.6914 50.7679 60.02V60.0171Z" fill="black"/>
</g>
<defs>
<clipPath id="clip0_40_165">
<rect width="80" height="80" fill="white"/>
</clipPath>
</defs>
</svg>
