<svg width="32" height="32" viewBox="0 0 80 80" fill="none" xmlns="http://www.w3.org/2000/svg">
<g clip-path="url(#clip0_39_145)">
<path d="M53.0612 32.1093L40.5207 24.8691C40.2069 24.6879 39.8201 24.6879 39.5063 24.8691L26.9656 32.1093C26.652 32.2905 26.4583 32.6253 26.4583 32.9878V47.4681C26.4583 47.8304 26.652 48.1654 26.9656 48.347L39.5063 55.5871C39.8201 55.7684 40.2069 55.7684 40.5207 55.5871L53.0612 48.347C53.375 48.1657 53.5684 47.8306 53.5684 47.4681V32.9878C53.5681 32.6253 53.3747 32.2905 53.0612 32.1093Z" fill="#8080F2"/>
<path d="M7.40836 38.7046L22.3918 12.6377C22.9361 11.6952 23.9415 11 25.0298 11H54.9971C56.0857 11 57.0913 11.6952 57.6356 12.6377L72.619 38.6471C73.1633 39.5899 73.1633 40.7796 72.619 41.7224L57.6356 67.5756C57.0913 68.5181 56.0857 69 54.9971 69H25.03C23.9417 69 22.9361 68.5326 22.3921 67.5899L7.40862 41.6944C6.86384 40.7522 6.86384 39.6471 7.40836 38.7046ZM19.8155 51.2393C19.8155 51.6225 20.0462 51.977 20.3784 52.1689L39.464 63.1803C39.7959 63.3719 40.2118 63.3719 40.5437 63.1803L59.6441 52.1689C59.9761 51.977 60.2083 51.6228 60.2083 51.2393V29.2161C60.2083 28.8327 59.9794 28.4785 59.6472 28.2866L40.5624 17.2751C40.2304 17.0833 39.8151 17.0833 39.4832 17.2751L20.3815 28.2866C20.0493 28.4785 19.8155 28.8327 19.8155 29.2161V51.2393Z" fill="#4B32C3"/>
</g>
<defs>
<clipPath id="clip0_39_145">
<rect width="80" height="80" fill="white"/>
</clipPath>
</defs>
</svg>
