<svg width="31" height="27" viewBox="0 0 31 27" fill="none" xmlns="http://www.w3.org/2000/svg">
<path d="M30.7747 14.0076L23.8916 25.6171C23.7633 25.8197 23.5837 25.9849 23.371 26.0958C23.1583 26.2067 22.9201 26.2594 22.6805 26.2486H8.90879C8.66855 26.258 8.43008 26.2038 8.21745 26.0916C8.00481 25.9794 7.82553 25.8131 7.69769 25.6095L0.812392 14.0184C0.689732 13.8095 0.625061 13.5717 0.625061 13.3295C0.625061 13.0872 0.689732 12.8494 0.812392 12.6405L7.69553 0.982294C7.81864 0.767 7.99472 0.586726 8.20705 0.458568C8.41938 0.330411 8.66093 0.258618 8.90879 0.25H22.6761C22.9238 0.259205 23.1651 0.331496 23.377 0.460026C23.589 0.588556 23.7646 0.769067 23.8872 0.984461L30.7704 12.6687C30.8923 12.8711 30.9567 13.1029 30.9567 13.3392C30.9567 13.5755 30.8923 13.8073 30.7704 14.0098L30.7747 14.0076ZM25.0745 18.5574V8.14275L15.7908 2.92136L6.518 8.14275V18.5574L15.7908 23.7777L25.0745 18.5574Z" fill="#4B32C3"/>
<path d="M22.076 16.7028L15.8504 20.2072L9.63025 16.7028V9.694L15.8504 6.18852L22.076 9.694V16.7028Z" fill="#8080F2"/>
</svg>
