<svg width="32" height="32" viewBox="0 0 80 80" fill="none" xmlns="http://www.w3.org/2000/svg">
<g clip-path="url(#clip0_37_5)">
<path d="M72 57.1674C69.672 57.7594 68.232 57.1934 66.94 55.2534L57.752 42.5414L56.424 40.7814L45.694 55.2954C44.468 57.0414 43.182 57.8014 40.894 57.1834L54.634 38.7394L41.842 22.0794C44.042 21.6514 45.562 21.8694 46.912 23.8394L56.442 36.7094L66.042 23.9094C67.272 22.1634 68.594 21.4994 70.802 22.1434L65.842 28.7194L59.122 37.4694C58.322 38.4694 58.432 39.1534 59.168 40.1194L72 57.1674ZM8.016 38.4314L9.14 32.9034C12.2 21.9634 24.74 17.4174 33.388 24.1774C38.442 28.1534 39.698 33.7774 39.448 40.0774H10.96C10.532 51.4174 18.694 58.2614 29.1 54.7694C32.75 53.5434 34.9 50.6854 35.976 47.1094C36.522 45.3174 37.426 45.0374 39.11 45.5494C38.25 50.0214 36.31 53.7574 32.21 56.0954C26.084 59.5954 17.34 58.4634 12.74 53.5994C10 50.7774 8.868 47.2014 8.36 43.3774C8.28 42.7454 8.12 42.1434 8 41.5374C8.01067 40.5027 8.016 39.4681 8.016 38.4334V38.4314ZM11.012 37.6714H36.756C36.588 29.4714 31.482 23.6474 24.504 23.5974C16.844 23.5374 11.344 29.2234 11.012 37.6714Z" fill="#CCCCCC"/>
</g>
<defs>
<clipPath id="clip0_37_5">
<rect width="80" height="80" fill="white"/>
</clipPath>
</defs>
</svg>
