<svg width="32" height="32" viewBox="0 0 80 80" fill="none" xmlns="http://www.w3.org/2000/svg">
<g clip-path="url(#clip0_11_1236)">
<path d="M29.6733 72C35.5649 72 40.3466 67.2213 40.3466 61.3333V50.6667H29.6733C23.7816 50.6667 19 55.4453 19 61.3333C19 67.2213 23.7816 72 29.6733 72Z" fill="#0ACF83"/>
<path d="M19 40.0001C19 34.1121 23.7816 29.3333 29.6733 29.3333H40.3466V50.6667H29.6733C23.7816 50.6667 19 45.8881 19 40.0001Z" fill="#A259FF"/>
<path d="M19.0006 18.6667C19.0006 12.7787 23.7823 8 29.6739 8H40.3472V29.3335H29.6739C23.7823 29.3335 19.0006 24.5548 19.0006 18.6667Z" fill="#F24E1E"/>
<path d="M40.3466 8H51.0198C56.9115 8 61.6931 12.7787 61.6931 18.6667C61.6931 24.5548 56.9115 29.3335 51.0198 29.3335H40.3466V8Z" fill="#FF7262"/>
<path d="M61.6931 40.0001C61.6931 45.8881 56.9115 50.6667 51.0198 50.6667C45.1282 50.6667 40.3466 45.8881 40.3466 40.0001C40.3466 34.1121 45.1282 29.3333 51.0198 29.3333C56.9115 29.3333 61.6931 34.1121 61.6931 40.0001Z" fill="#1ABCFE"/>
</g>
<defs>
<clipPath id="clip0_11_1236">
<rect width="80" height="80" fill="white"/>
</clipPath>
</defs>
</svg>
