<svg width="32" height="32" viewBox="0 0 80 80" fill="none" xmlns="http://www.w3.org/2000/svg">
<g clip-path="url(#clip0_11_1244)">
<path d="M14.033 62.0897L22.9422 5.3784C22.9971 5.04046 23.1569 4.72805 23.3992 4.485C23.6415 4.24195 23.9542 4.08045 24.2935 4.02314C24.6328 3.96583 24.9816 4.01559 25.291 4.16544C25.6004 4.31529 25.8549 4.55771 26.0188 4.85872L35.2319 21.9543L38.9047 14.9988C39.0449 14.7356 39.2546 14.5155 39.5112 14.3619C39.7677 14.2084 40.0615 14.1273 40.3609 14.1273C40.6603 14.1273 40.9541 14.2084 41.2106 14.3619C41.4672 14.5155 41.6769 14.7356 41.8171 14.9988L66.6845 62.0925L14.033 62.0897Z" fill="#FFA000"/>
<path d="M44.8112 40.0006L35.2276 21.9489L14.033 62.0914L44.8112 40.0006Z" fill="#F57C00"/>
<path d="M66.681 62.0917L59.8571 20.0874C59.8056 19.792 59.6737 19.5163 59.4757 19.2903C59.2777 19.0643 59.0212 18.8966 58.7341 18.8055C58.447 18.7143 58.1402 18.7032 57.8472 18.7734C57.5542 18.8436 57.2862 18.9923 57.0722 19.2034L14.033 62.0917L37.8476 75.3765C38.5831 75.785 39.4114 76 40.2538 76C41.0961 76 41.9244 75.785 42.6599 75.3765L66.681 62.0917Z" fill="#FFCA28"/>
<path d="M59.8571 20.0873C59.8057 19.7919 59.6737 19.5162 59.4757 19.2901C59.2777 19.0642 59.0212 18.8964 58.7341 18.8053C58.447 18.7142 58.1403 18.7031 57.8473 18.7733C57.5543 18.8435 57.2862 18.9922 57.0722 19.2033L48.5335 27.7223L41.8128 14.9937C41.6726 14.7306 41.4629 14.5104 41.2063 14.3569C40.9498 14.2034 40.656 14.1222 40.3566 14.1222C40.0572 14.1222 39.7634 14.2034 39.5069 14.3569C39.2503 14.5104 39.0406 14.7306 38.9004 14.9937L35.2276 21.9493L26.0145 4.85871C25.8503 4.55765 25.5954 4.31531 25.2857 4.16568C24.976 4.01606 24.6269 3.9667 24.2875 4.02449C23.9481 4.08229 23.6355 4.24437 23.3934 4.48796C23.1514 4.73155 22.9921 5.04443 22.9379 5.38268L14.033 62.0888H14L14.0287 62.1217L14.263 62.2364L48.5134 28.1314L57.0601 19.6211C57.2739 19.409 57.5422 19.2593 57.8358 19.1886C58.1292 19.1178 58.4367 19.1286 58.7244 19.2198C59.0121 19.3111 59.2692 19.4792 59.4674 19.7058C59.6656 19.9325 59.7975 20.209 59.8485 20.5051L66.6143 62.1324L66.6802 62.0917L59.8571 20.0873ZM14.1111 62.014L22.9437 5.78759C22.9979 5.44935 23.1571 5.13647 23.3992 4.89287C23.6413 4.64928 23.9538 4.48721 24.2933 4.42941C24.6327 4.37161 24.9817 4.42098 25.2914 4.5706C25.6011 4.72022 25.856 4.96257 26.0202 5.26363L35.2319 22.3585L38.9047 15.4029C39.0449 15.1398 39.2546 14.9196 39.5112 14.7661C39.7677 14.6126 40.0615 14.5314 40.3609 14.5314C40.6603 14.5314 40.9541 14.6126 41.2106 14.7661C41.4672 14.9196 41.6769 15.1398 41.8171 15.4029L48.398 27.8534L14.1111 62.014Z" fill="white" fill-opacity="0.2"/>
<path opacity="0.2" d="M42.6606 74.9766C41.9251 75.3851 41.0968 75.5994 40.2545 75.5994C39.4122 75.5994 38.5838 75.3851 37.8484 74.9766L14.091 61.7169L14.0337 62.0891L37.8484 75.3701C38.5838 75.7786 39.4122 75.9928 40.2545 75.9928C41.0968 75.9928 41.9251 75.7786 42.6606 75.3701L66.681 62.0891L66.6193 61.7126L42.6606 74.9766Z" fill="#A52714"/>
</g>
<defs>
<clipPath id="clip0_11_1244">
<rect width="80" height="80" fill="white"/>
</clipPath>
</defs>
</svg>
