<svg width="32" height="32" viewBox="0 0 80 80" fill="none" xmlns="http://www.w3.org/2000/svg">
<g clip-path="url(#clip0_37_13)">
<path d="M22.7126 55.4008V31.7895H18.0972V28.9231L22.7126 28.2915V24.502C22.7126 21.8462 23.3927 19.7733 24.753 18.2834C26.1457 16.7611 28.2834 16 31.166 16C32.7854 16 33.9352 16.0972 34.6154 16.2915C35.3279 16.4858 35.8624 16.6316 36.2186 16.7287L36.753 16.8745L35.9757 20.4211C34.1619 20.1943 32.7692 20.081 31.7976 20.081C30.8259 20.081 29.9352 20.4534 29.1255 21.1984C28.3482 21.9109 27.9595 23.0445 27.9595 24.5992V28.2915H33.7895L33.2065 31.7895H27.9595V55.498C27.9595 58.1539 27.4251 60.2267 26.3563 61.7166C25.2874 63.2389 23.6356 64 21.4008 64C20.1377 64 19.004 63.8219 18 63.4656L18.6316 59.7733C19.0202 59.8704 19.5223 59.919 20.1377 59.919C21.8543 59.919 22.7126 58.413 22.7126 55.4008Z" fill="white"/>
<path d="M40.1018 35.6275C40.1018 32.7125 39.8104 30.0891 39.2274 27.7571L43.3083 27.2227L44.2314 29.6518C46.9521 27.7409 49.7375 26.7854 52.5877 26.7854C58.4824 26.7854 61.4298 29.9595 61.4298 36.3077V53.3117H56.1828V37.2794C56.1828 33.004 54.4824 30.8664 51.0816 30.8664C49.1059 30.8664 47.195 31.5628 45.3488 32.9555V53.3117H40.1018V35.6275Z" fill="white"/>
</g>
<defs>
<clipPath id="clip0_37_13">
<rect width="80" height="80" fill="white"/>
</clipPath>
</defs>
</svg>
