<svg width="32" height="32" viewBox="0 0 80 80" fill="none" xmlns="http://www.w3.org/2000/svg">
<g clip-path="url(#clip0_38_130)">
<g clip-path="url(#clip1_38_130)">
<path d="M70.793 37.1485L42.85 9.20701C41.2417 7.59776 38.6318 7.59776 37.0215 9.20701L31.219 15.0095L38.5798 22.3703C40.2902 21.7923 42.2518 22.18 43.6152 23.5435C44.9852 24.9158 45.3703 26.894 44.7783 28.61L51.872 35.704C53.5883 35.1128 55.5685 35.4953 56.9393 36.8683C58.855 38.7833 58.855 41.887 56.9393 43.8033C55.023 45.7198 51.9193 45.7198 50.002 43.8033C48.561 42.3608 48.205 40.2445 48.9345 38.4693L42.319 31.8538L42.3182 49.263C42.7978 49.5001 43.2358 49.8134 43.6152 50.1905C45.531 52.1055 45.531 55.2095 43.6152 57.1273C41.699 59.0428 38.5938 59.0428 36.6803 57.1273C34.7645 55.2095 34.7645 52.1058 36.6803 50.1908C37.1393 49.7314 37.6849 49.3677 38.2855 49.1205V31.549C37.6841 31.3035 37.1382 30.9395 36.6803 30.4788C35.2288 29.0293 34.8798 26.8995 35.6235 25.1173L28.3675 17.8605L9.2075 37.0193C7.5975 38.63 7.5975 41.2403 9.2075 42.8498L37.151 70.7918C38.7597 72.4013 41.3693 72.4013 42.98 70.7918L70.7928 42.9795C72.4023 41.3695 72.4025 38.7578 70.793 37.1485Z" fill="#F44D27"/>
</g>
</g>
<defs>
<clipPath id="clip0_38_130">
<rect width="80" height="80" fill="white"/>
</clipPath>
<clipPath id="clip1_38_130">
<rect width="64" height="64" fill="white" transform="translate(8 8)"/>
</clipPath>
</defs>
</svg>
