<svg width="32" height="32" viewBox="0 0 80 80" fill="none" xmlns="http://www.w3.org/2000/svg">
<g clip-path="url(#clip0_37_66)">
<g clip-path="url(#clip1_37_66)">
<path fill-rule="evenodd" clip-rule="evenodd" d="M21.3333 9.33334C27.9609 9.33334 33.3333 14.7058 33.3333 21.3333C33.3333 27.9609 27.9609 33.3333 21.3333 33.3333C14.7058 33.3333 9.33334 27.9609 9.33334 21.3333C9.33334 14.7058 14.7058 9.33334 21.3333 9.33334Z" stroke="black" stroke-width="2" stroke-linecap="round" stroke-linejoin="round"/>
<path fill-rule="evenodd" clip-rule="evenodd" d="M38.6667 33.3333C43.0849 33.3333 46.6667 36.9151 46.6667 41.3333C46.6667 45.7516 43.0849 49.3333 38.6667 49.3333C34.2484 49.3333 30.6667 45.7516 30.6667 41.3333C30.6667 36.9151 34.2484 33.3333 38.6667 33.3333Z" stroke="black" stroke-width="2" stroke-linecap="round" stroke-linejoin="round"/>
<path fill-rule="evenodd" clip-rule="evenodd" d="M38.6667 54.6667C43.0849 54.6667 46.6667 58.2484 46.6667 62.6667C46.6667 67.0849 43.0849 70.6667 38.6667 70.6667C34.2484 70.6667 30.6667 67.0849 30.6667 62.6667C30.6667 58.2484 34.2484 54.6667 38.6667 54.6667Z" stroke="black" stroke-width="2" stroke-linecap="round" stroke-linejoin="round"/>
<path fill-rule="evenodd" clip-rule="evenodd" d="M62.6667 54.6667C67.0849 54.6667 70.6667 58.2484 70.6667 62.6667C70.6667 67.0849 67.0849 70.6667 62.6667 70.6667C58.2484 70.6667 54.6667 67.0849 54.6667 62.6667C54.6667 58.2484 58.2484 54.6667 62.6667 54.6667Z" stroke="black" stroke-width="2" stroke-linecap="round" stroke-linejoin="round"/>
<path d="M41.382 39.4759L37.2897 43.5627L35.3021 41.5821" stroke="black" stroke-width="2" stroke-linecap="round" stroke-linejoin="round"/>
<path fill-rule="evenodd" clip-rule="evenodd" d="M62.6667 33.3333C67.0849 33.3333 70.6667 36.9151 70.6667 41.3333C70.6667 45.7516 67.0849 49.3333 62.6667 49.3333C58.2484 49.3333 54.6667 45.7516 54.6667 41.3333C54.6667 36.9151 58.2484 33.3333 62.6667 33.3333Z" stroke="black" stroke-width="2" stroke-linecap="round" stroke-linejoin="round"/>
<path d="M65.382 39.4759L61.2897 43.5627L59.3021 41.5821" stroke="black" stroke-width="2" stroke-linecap="round" stroke-linejoin="round"/>
<path d="M17.3333 17.0827C17.3333 16.0333 18.4895 15.3952 19.3773 15.9545L26.1949 20.2492C27.0287 20.7744 27.0243 21.9913 26.1869 22.5105L19.3693 26.7379C18.4811 27.2885 17.3333 26.6497 17.3333 25.6047V17.0827Z" stroke="black" stroke-width="2" stroke-linecap="round" stroke-linejoin="round"/>
<path d="M20 33.3333V53.3333C20 58.488 24.2363 62.6667 29.3333 62.6667H30.6667" stroke="black" stroke-width="2" stroke-linecap="round" stroke-linejoin="round"/>
<path d="M30.5987 42.6667C31.3351 42.6667 31.932 42.0697 31.932 41.3333C31.932 40.5969 31.3351 40 30.5987 40V42.6667ZM18.6667 33.3803C18.6667 38.5089 22.8244 42.6667 27.9531 42.6667V40C24.2971 40 21.3333 37.0363 21.3333 33.3803H18.6667ZM27.9531 42.6667H30.5987V40H27.9531V42.6667Z" fill="black"/>
<path d="M46.7396 41.3333H54.6657" stroke="black" stroke-width="2" stroke-linecap="round" stroke-linejoin="round"/>
<path fill-rule="evenodd" clip-rule="evenodd" d="M36 61.3333C36.7357 61.3333 37.3333 61.9309 37.3333 62.6667C37.3333 63.4035 36.7357 64 36 64C35.2643 64 34.6667 63.4035 34.6667 62.6667C34.6667 61.9309 35.2643 61.3333 36 61.3333Z" fill="black"/>
<path fill-rule="evenodd" clip-rule="evenodd" d="M41.3333 61.3333C42.0691 61.3333 42.6667 61.9309 42.6667 62.6667C42.6667 63.4035 42.0691 64 41.3333 64C40.5976 64 40 63.4035 40 62.6667C40 61.9309 40.5976 61.3333 41.3333 61.3333Z" fill="black"/>
<path d="M53.3397 62.6759L51.9896 62.7199" stroke="black" stroke-width="2" stroke-linecap="round"/>
</g>
</g>
<defs>
<clipPath id="clip0_37_66">
<rect width="80" height="80" fill="white"/>
</clipPath>
<clipPath id="clip1_37_66">
<rect width="64" height="64" fill="white" transform="translate(8 8)"/>
</clipPath>
</defs>
</svg>
