<svg width="32" height="32" viewBox="0 0 80 80" fill="none" xmlns="http://www.w3.org/2000/svg">
<g clip-path="url(#clip0_37_34)">
<path d="M15.4205 57.9756L12.9033 56.5223L40.9453 7.95352L43.4625 9.40684L15.4205 57.9756Z" fill="#E535AB"/>
<path d="M12.3269 52.6421H68.4108V55.5487H12.3269V52.6421Z" fill="#E535AB"/>
<path d="M41.4891 70.4716L13.4366 54.2751L14.89 51.7578L42.9424 67.9544L41.4891 70.4716ZM65.8583 28.2591L37.8058 12.0626L39.2591 9.54534L67.3116 25.7419L65.8583 28.2591Z" fill="#E535AB"/>
<path d="M14.8977 28.2479L13.4444 25.7309L41.4968 9.53431L42.9502 12.0513L14.8977 28.2479Z" fill="#E535AB"/>
<path d="M65.341 57.9761L37.299 9.40736L39.8162 7.95405L67.8582 56.5228L65.341 57.9761ZM14.5506 23.8034H17.4572V56.1966H14.5506V23.8034Z" fill="#E535AB"/>
<path d="M63.298 23.8034H66.2046V56.1966H63.298V23.8034Z" fill="#E535AB"/>
<path d="M40.9943 69.2414L39.7248 67.0425L64.123 52.9559L65.3925 55.1546L40.9943 69.2414Z" fill="#E535AB"/>
<path d="M70.0568 57.1421C68.3758 60.0662 64.6287 61.0643 61.7046 59.3834C58.7804 57.7024 57.7824 53.9553 59.4633 51.0312C61.1443 48.107 64.8914 47.109 67.8155 48.7899C70.7571 50.4884 71.7552 54.218 70.0568 57.1421ZM21.2744 28.9688C19.5934 31.8929 15.8463 32.891 12.9222 31.2101C9.99806 29.5291 9 25.782 10.6809 22.8579C12.3619 19.9337 16.109 18.9357 19.0331 20.6166C21.9573 22.3151 22.9553 26.0447 21.2744 28.9688ZM10.6985 57.1421C9.01751 54.218 10.0156 50.4884 12.9397 48.7899C15.8639 47.109 19.5934 48.107 21.2919 51.0312C22.9728 53.9553 21.9748 57.6849 19.0506 59.3834C16.109 61.0643 12.3794 60.0662 10.6985 57.1421ZM59.4808 28.9688C57.7999 26.0447 58.7979 22.3151 61.7221 20.6166C64.6462 18.9357 68.3758 19.9337 70.0743 22.8579C71.7552 25.782 70.7571 29.5116 67.833 31.2101C64.9089 32.891 61.1618 31.8929 59.4808 28.9688ZM40.3776 74.2842C36.9982 74.2842 34.2667 71.5527 34.2667 68.1733C34.2667 64.7939 36.9982 62.0624 40.3776 62.0624C43.757 62.0624 46.4885 64.7939 46.4885 68.1733C46.4885 71.5352 43.757 74.2842 40.3776 74.2842ZM40.3776 17.9376C36.9982 17.9376 34.2667 15.2061 34.2667 11.8267C34.2667 8.4473 36.9982 5.71577 40.3776 5.71577C43.757 5.71577 46.4885 8.4473 46.4885 11.8267C46.4885 15.2061 43.757 17.9376 40.3776 17.9376Z" fill="#E535AB"/>
</g>
<defs>
<clipPath id="clip0_37_34">
<rect width="80" height="80" fill="white"/>
</clipPath>
</defs>
</svg>
