<svg width="26" height="26" viewBox="0 0 26 26" fill="none" xmlns="http://www.w3.org/2000/svg">
<path d="M0 0H26V26H0V0Z" fill="#F7DF1E"/>
<path d="M6.83637 21.7275L8.82598 20.5233C9.20989 21.2039 9.55906 21.7798 10.3966 21.7798C11.1995 21.7798 11.7058 21.4657 11.7058 20.2441V11.9365H14.1491V20.2787C14.1491 22.8093 12.6657 23.9612 10.5014 23.9612C8.54679 23.9612 7.41223 22.949 6.83627 21.7273M15.4762 21.4656L17.4656 20.3138C17.9894 21.1691 18.67 21.7973 19.8742 21.7973C20.8866 21.7973 21.5322 21.2912 21.5322 20.593C21.5322 19.7553 20.869 19.4586 19.752 18.97L19.1413 18.708C17.3785 17.9578 16.2092 17.0153 16.2092 15.0257C16.2092 13.1931 17.6054 11.7968 19.787 11.7968C21.3403 11.7968 22.4573 12.3379 23.26 13.7516L21.3576 14.9734C20.9386 14.2229 20.4851 13.9262 19.7869 13.9262C19.0713 13.9262 18.6175 14.38 18.6175 14.9734C18.6175 15.7063 19.0713 16.0032 20.1184 16.457L20.7292 16.7187C22.8062 17.6089 23.9755 18.5164 23.9755 20.5582C23.9755 22.7574 22.2477 23.9615 19.9265 23.9615C17.6577 23.9615 16.1916 22.8795 15.4761 21.4657" fill="black"/>
</svg>
