<svg width="32" height="32" viewBox="0 0 80 80" fill="none" xmlns="http://www.w3.org/2000/svg">
<g clip-path="url(#clip0_11_1267)">
<path d="M68.1121 39.45C68.1121 35.7487 65.1116 32.7482 61.4103 32.7482C61.1722 32.7482 60.9374 32.761 60.706 32.7852L69.9107 5.63688H30.7936L39.9854 32.7618C39.8507 32.7536 39.7151 32.7482 39.5781 32.7482C35.8769 32.7482 32.8764 35.7487 32.8764 39.45C32.8764 42.4417 34.8371 44.9746 37.5434 45.8364C36.1139 48.3123 34.3155 50.542 32.2737 52.4683C29.497 55.0877 26.3194 57.0739 22.8827 58.2978C18.7908 56.1958 16.8584 51.5207 18.6021 47.4219C18.7989 46.9592 18.9999 46.4899 19.1921 46.0228C22.1564 45.3309 24.3653 42.6732 24.3653 39.4981C24.3653 35.7969 21.3649 32.7964 17.6636 32.7964C13.9621 32.7964 10.9617 35.7969 10.9617 39.4981C10.9617 41.7679 12.0911 43.7724 13.8172 44.9848C12.1584 48.7617 9.72021 52.7141 8.96056 57.2949C8.05014 62.7852 8.95775 68.6129 13.7059 71.9039C24.7644 79.5683 36.7682 67.1526 49.4246 64.0315C54.0114 62.9003 59.0464 63.0826 63.0876 60.7421C66.1224 58.9844 68.123 56.0716 68.6909 52.8012C69.2517 49.5705 68.4339 46.3539 66.5535 43.7456C67.5261 42.5823 68.1121 41.0849 68.1121 39.45ZM46.2793 39.4737C46.2793 39.4658 46.2801 39.4578 46.2801 39.45C46.2801 37.0195 44.9859 34.891 43.0495 33.7162L50.3654 18.9227L57.6941 33.8731C55.8943 35.0746 54.7084 37.1236 54.7084 39.45C54.7084 39.4989 54.7112 39.547 54.7122 39.5957L46.2793 39.4737Z" fill="#C63D14"/>
<path d="M69.7487 39.4498C69.7487 35.379 66.8157 31.9823 62.9522 31.2568L72.1936 4H28.5104L37.7658 31.312C34.0368 32.142 31.2396 35.4745 31.2396 39.4498C31.2396 42.4352 32.8172 45.0575 35.1817 46.531C34.0444 48.2252 32.6957 49.8196 31.1502 51.2776C28.6993 53.5899 25.9685 55.3436 23.0247 56.4971C20.0596 54.6346 18.8062 51.1223 20.108 48.0623L20.2098 47.8229C20.2736 47.6731 20.3374 47.5229 20.4011 47.3726C23.6578 46.2371 26.002 43.137 26.002 39.4979C26.002 34.9 22.2612 31.1595 17.6633 31.1595C13.0653 31.1595 9.32482 34.9 9.32482 39.4979C9.32482 41.8186 10.2785 43.9202 11.8136 45.4333C11.5353 46.0267 11.2427 46.6298 10.9419 47.2476C9.53823 50.1306 7.94735 53.3984 7.34558 57.0271C6.15046 64.2338 8.078 69.9948 12.7732 73.2489C15.6224 75.2236 18.5156 76 21.4271 76C26.9098 75.9997 32.4556 73.2456 37.8799 70.5513C41.7867 68.611 45.8261 66.6045 49.8165 65.6205C51.3011 65.2543 52.8289 65.034 54.4462 64.8007C57.6534 64.338 60.9702 63.8597 63.9079 62.1583C67.313 60.186 69.6443 56.8774 70.3033 53.0811C70.8692 49.8222 70.1879 46.5585 68.527 43.7903C69.3015 42.5251 69.7487 41.0389 69.7487 39.4498ZM66.4752 39.4498C66.4752 42.2427 64.2031 44.515 61.41 44.515C58.6173 44.515 56.345 42.2427 56.345 39.4498C56.345 36.6569 58.6173 34.3848 61.41 34.3848C64.2031 34.3848 66.4752 36.6569 66.4752 39.4498ZM67.6273 7.27344L59.4666 31.3424C59.1129 31.4272 58.7681 31.5341 58.4332 31.6628L50.3716 15.2171L42.2866 31.5654C41.9372 31.445 41.5776 31.346 41.2089 31.2726L33.0762 7.27344H67.6273ZM39.578 34.3848C42.3709 34.3848 44.643 36.6569 44.643 39.4498C44.643 42.2427 42.3709 44.515 39.578 44.515C36.7853 44.515 34.513 42.2427 34.513 39.4498C34.513 36.6569 36.7853 34.3848 39.578 34.3848ZM17.6633 34.433C20.4564 34.433 22.7285 36.7051 22.7285 39.4979C22.7285 42.2908 20.4564 44.5631 17.6633 44.5631C14.8706 44.5631 12.5983 42.2908 12.5983 39.4979C12.5983 36.7051 14.8706 34.433 17.6633 34.433ZM67.078 52.5212C66.5852 55.3601 64.8316 57.8402 62.2671 59.3254C59.8767 60.7101 57.0119 61.1234 53.9789 61.5606C52.3542 61.7949 50.6739 62.0373 49.0326 62.4423C44.6926 63.5124 40.4889 65.6003 36.4237 67.6196C28.2885 71.6603 21.2626 75.1497 14.6381 70.5584C9.78551 67.1953 10.0096 60.9726 10.575 57.5627C11.0988 54.4036 12.5152 51.4941 13.8851 48.6803C14.1222 48.1934 14.3524 47.7164 14.5783 47.2425C15.2577 47.5142 15.9802 47.6993 16.7332 47.7834C15.339 52.3854 17.5319 57.389 22.1343 59.7536L22.7641 60.0772L23.4313 59.8396C27.07 58.5439 30.4226 56.4643 33.3966 53.6587C35.319 51.8452 36.971 49.8387 38.3294 47.6948C38.7368 47.7561 39.1537 47.7885 39.578 47.7885C44.1759 47.7885 47.9167 44.048 47.9167 39.4498C47.9167 36.977 46.8336 34.7533 45.1182 33.2248L50.3586 22.6278L55.6523 33.4268C54.064 34.9461 53.0715 37.0835 53.0715 39.4498C53.0715 44.048 56.812 47.7885 61.41 47.7885C63.1766 47.7885 64.8153 47.2348 66.165 46.2941C67.1022 48.2125 67.4513 50.371 67.078 52.5212Z" fill="white"/>
</g>
<defs>
<clipPath id="clip0_11_1267">
<rect width="80" height="80" fill="white"/>
</clipPath>
</defs>
</svg>
