<svg width="24" height="26" viewBox="0 0 24 26" fill="none" xmlns="http://www.w3.org/2000/svg">
<path d="M22.0683 12.8016C22.0683 11.465 20.9848 10.3815 19.6482 10.3815C19.5622 10.3815 19.4775 10.3861 19.3939 10.3949L22.7178 0.591309H8.59215L11.9114 10.3864C11.8628 10.3835 11.8138 10.3815 11.7644 10.3815C10.4278 10.3815 9.34431 11.465 9.34431 12.8016C9.34431 13.882 10.0523 14.7966 11.0296 15.1078C10.5134 16.0019 9.86398 16.8071 9.12663 17.5027C8.12398 18.4486 6.97648 19.1658 5.73546 19.6078C4.25782 18.8487 3.56002 17.1605 4.18968 15.6804C4.26077 15.5133 4.33332 15.3438 4.40275 15.1751C5.47319 14.9253 6.27086 13.9655 6.27086 12.819C6.27086 11.4824 5.18737 10.3989 3.8508 10.3989C2.51414 10.3989 1.43065 11.4824 1.43065 12.819C1.43065 13.6386 1.8385 14.3625 2.46181 14.8003C1.86278 16.1642 0.982337 17.5914 0.708016 19.2456C0.379253 21.2282 0.707004 23.3327 2.42163 24.5211C6.41496 27.2887 10.7497 22.8053 15.3201 21.6783C16.9764 21.2698 18.7945 21.3356 20.2539 20.4904C21.3498 19.8557 22.0722 18.8038 22.2773 17.6229C22.4798 16.4562 22.1845 15.2947 21.5055 14.3528C21.8567 13.9327 22.0683 13.392 22.0683 12.8016ZM14.1842 12.8101C14.1842 12.8073 14.1845 12.8044 14.1845 12.8016C14.1845 11.9239 13.7172 11.1553 13.0179 10.7311L15.6598 5.38894L18.3062 10.7877C17.6563 11.2216 17.2281 11.9615 17.2281 12.8016C17.2281 12.8192 17.2291 12.8366 17.2295 12.8542L14.1842 12.8101Z" fill="#C63D14"/>
<path d="M22.6592 12.8013C22.6592 11.3313 21.6001 10.1047 20.205 9.84273L23.5422 0H7.76762L11.1099 9.86269C9.76328 10.1624 8.75318 11.3658 8.75318 12.8013C8.75318 13.8794 9.32288 14.8263 10.1767 15.3584C9.76604 15.9702 9.27901 16.546 8.7209 17.0725C7.83586 17.9075 6.84976 18.5407 5.78668 18.9573C4.71597 18.2847 4.26334 17.0164 4.73345 15.9114L4.77023 15.8249C4.79322 15.7708 4.8163 15.7166 4.83929 15.6623C6.0153 15.2523 6.8618 14.1328 6.8618 12.8187C6.8618 11.1583 5.51098 9.8076 3.85062 9.8076C2.19025 9.8076 0.83952 11.1583 0.83952 12.8187C0.83952 13.6567 1.18392 14.4156 1.73826 14.962C1.63775 15.1763 1.53208 15.3941 1.42348 15.6172C0.916584 16.6583 0.3421 17.8383 0.124795 19.1487C-0.30678 21.7511 0.389276 23.8315 2.08477 25.0065C3.11364 25.7196 4.15841 26.0001 5.20981 26C7.18965 25.9999 9.19229 25.0053 11.1511 24.0324C12.5619 23.3317 14.0205 22.6072 15.4615 22.2518C15.9976 22.1196 16.5493 22.04 17.1334 21.9558C18.2915 21.7887 19.4892 21.616 20.5501 21.0016C21.7797 20.2894 22.6215 19.0946 22.8595 17.7237C23.0639 16.5469 22.8179 15.3683 22.2181 14.3687C22.4977 13.9118 22.6592 13.3752 22.6592 12.8013ZM21.4772 12.8013C21.4772 13.8099 20.6567 14.6304 19.648 14.6304C18.6396 14.6304 17.819 13.8099 17.819 12.8013C17.819 11.7928 18.6396 10.9723 19.648 10.9723C20.6567 10.9723 21.4772 11.7928 21.4772 12.8013ZM21.8932 1.18207L18.9463 9.87363C18.8185 9.90425 18.694 9.94288 18.5731 9.98932L15.662 4.05063L12.7424 9.95419C12.6162 9.91069 12.4864 9.87492 12.3532 9.84843L9.4164 1.18207H21.8932ZM11.7643 10.9723C12.7728 10.9723 13.5933 11.7928 13.5933 12.8013C13.5933 13.8099 12.7728 14.6304 11.7643 14.6304C10.7558 14.6304 9.93525 13.8099 9.93525 12.8013C9.93525 11.7928 10.7558 10.9723 11.7643 10.9723ZM3.85062 10.9897C4.85925 10.9897 5.67973 11.8102 5.67973 12.8187C5.67973 13.8272 4.85925 14.6478 3.85062 14.6478C2.84217 14.6478 2.02159 13.8272 2.02159 12.8187C2.02159 11.8102 2.84217 10.9897 3.85062 10.9897ZM21.6948 17.5215C21.5169 18.5467 20.8836 19.4423 19.9576 19.9786C19.0943 20.4786 18.0599 20.6279 16.9646 20.7858C16.3779 20.8704 15.7711 20.9579 15.1784 21.1042C13.6112 21.4906 12.0932 22.2446 10.6252 22.9737C7.68753 24.4329 5.1504 25.6929 2.75821 24.035C1.00588 22.8205 1.0868 20.5734 1.29096 19.3421C1.48012 18.2013 1.99161 17.1506 2.48627 16.1346C2.57189 15.9587 2.65502 15.7865 2.73659 15.6153C2.98195 15.7135 3.24284 15.7803 3.51477 15.8107C3.01128 17.4725 3.80316 19.2794 5.46518 20.1332L5.69261 20.2501L5.93354 20.1643C7.24749 19.6964 8.45816 18.9455 9.53209 17.9323C10.2263 17.2775 10.8229 16.5529 11.3134 15.7787C11.4605 15.8008 11.6111 15.8125 11.7643 15.8125C13.4246 15.8125 14.7755 14.4618 14.7755 12.8013C14.7755 11.9084 14.3843 11.1054 13.7649 10.5534L15.6573 6.72671L17.5689 10.6263C16.9953 11.175 16.6369 11.9468 16.6369 12.8013C16.6369 14.4618 17.9877 15.8125 19.648 15.8125C20.286 15.8125 20.8778 15.6126 21.3651 15.2729C21.7036 15.9656 21.8296 16.7451 21.6948 17.5215Z" fill="white"/>
</svg>
