<svg width="32" height="32" viewBox="0 0 80 80" fill="none" xmlns="http://www.w3.org/2000/svg">
<g clip-path="url(#clip0_38_138)">
<g clip-path="url(#clip1_38_138)">
<path d="M64 20C65.0609 20 66.0783 20.4214 66.8284 21.1716C67.5786 21.9217 68 22.9391 68 24V56C68 57.0609 67.5786 58.0783 66.8284 58.8284C66.0783 59.5786 65.0609 60 64 60H16C14.9391 60 13.9217 59.5786 13.1716 58.8284C12.4214 58.0783 12 57.0609 12 56V24C12 22.9391 12.4214 21.9217 13.1716 21.1716C13.9217 20.4214 14.9391 20 16 20H64ZM16 16C13.8783 16 11.8434 16.8429 10.3431 18.3431C8.84285 19.8434 8 21.8783 8 24L8 56C8 58.1217 8.84285 60.1566 10.3431 61.6569C11.8434 63.1571 13.8783 64 16 64H64C66.1217 64 68.1566 63.1571 69.6569 61.6569C71.1571 60.1566 72 58.1217 72 56V24C72 21.8783 71.1571 19.8434 69.6569 18.3431C68.1566 16.8429 66.1217 16 64 16H16Z" fill="black"/>
<path fill-rule="evenodd" clip-rule="evenodd" d="M44.584 40.584C44.7698 40.3978 44.9905 40.25 45.2335 40.1492C45.4765 40.0483 45.7369 39.9964 46 39.9964C46.2631 39.9964 46.5236 40.0483 46.7665 40.1492C47.0095 40.25 47.2302 40.3978 47.416 40.584L54 47.172L60.584 40.584C60.77 40.3981 60.9907 40.2505 61.2337 40.1499C61.4766 40.0493 61.737 39.9975 62 39.9975C62.263 39.9975 62.5234 40.0493 62.7663 40.1499C63.0093 40.2505 63.2301 40.3981 63.416 40.584C63.602 40.77 63.7495 40.9907 63.8501 41.2337C63.9507 41.4766 64.0025 41.737 64.0025 42C64.0025 42.263 63.9507 42.5234 63.8501 42.7663C63.7495 43.0093 63.602 43.2301 63.416 43.416L55.416 51.416C55.2302 51.6023 55.0095 51.75 54.7665 51.8509C54.5236 51.9517 54.2631 52.0036 54 52.0036C53.7369 52.0036 53.4765 51.9517 53.2335 51.8509C52.9905 51.75 52.7698 51.6023 52.584 51.416L44.584 43.416C44.3978 43.2302 44.25 43.0095 44.1492 42.7665C44.0483 42.5236 43.9964 42.2631 43.9964 42C43.9964 41.7369 44.0483 41.4765 44.1492 41.2335C44.25 40.9905 44.3978 40.7698 44.584 40.584Z" fill="black"/>
<path fill-rule="evenodd" clip-rule="evenodd" d="M54 28C54.5304 28 55.0391 28.2107 55.4142 28.5858C55.7893 28.9609 56 29.4696 56 30V46C56 46.5304 55.7893 47.0391 55.4142 47.4142C55.0391 47.7893 54.5304 48 54 48C53.4696 48 52.9609 47.7893 52.5858 47.4142C52.2107 47.0391 52 46.5304 52 46V30C52 29.4696 52.2107 28.9609 52.5858 28.5858C52.9609 28.2107 53.4696 28 54 28Z" fill="black"/>
<path d="M22.24 52V36.04H22.464L28.176 48.996H31.272L36.952 36.036H37.176V52H41.468V28.004H36.668L29.828 43.58H29.672L22.832 28.004H18V52H22.24Z" fill="black"/>
</g>
</g>
<defs>
<clipPath id="clip0_38_138">
<rect width="80" height="80" fill="white"/>
</clipPath>
<clipPath id="clip1_38_138">
<rect width="64" height="64" fill="white" transform="translate(8 8)"/>
</clipPath>
</defs>
</svg>
