<svg width="32" height="32" viewBox="0 0 32 32" fill="none" xmlns="http://www.w3.org/2000/svg">
<g clip-path="url(#clip0_48_15)">
<path d="M27.2 0H4.8C2.14903 0 0 2.14903 0 4.8V27.2C0 29.851 2.14903 32 4.8 32H27.2C29.851 32 32 29.851 32 27.2V4.8C32 2.14903 29.851 0 27.2 0Z" fill="#12100E"/>
<path d="M7.8125 10.8125C7.8125 10.5625 7.6875 10.25 7.5 10.125L5.5625 7.75V7.375H11.6875L16.375 17.75L20.5625 7.375H26.375V7.75L24.6875 9.375C24.5625 9.4375 24.5 9.625 24.5 9.8125V21.6875C24.5 21.875 24.5625 22.0625 24.6875 22.1875L26.375 23.75V24.125H18.0625V23.75L19.75 22.125C19.9375 21.9375 19.9375 21.875 19.9375 21.625V12.0625L15.1875 24.0625H14.5625L9.0625 12.0625V20.125C9 20.4375 9.125 20.8125 9.375 21.0625L11.5625 23.75V24.0625H5.3125V23.75L7.5 21.0625C7.75 20.8125 7.875 20.4375 7.8125 20.125V10.8125Z" fill="white"/>
</g>
<defs>
<clipPath id="clip0_48_15">
<rect width="32" height="32" fill="white"/>
</clipPath>
</defs>
</svg>
