<svg width="32" height="32" viewBox="0 0 80 80" fill="none" xmlns="http://www.w3.org/2000/svg">
<g clip-path="url(#clip0_11_1278)">
<path d="M45.6083 15.1329C42.9082 11.9463 40.5825 8.7096 40.108 8.03731C40.0967 8.02552 40.0831 8.01613 40.068 8.00972C40.053 8.00331 40.0368 8 40.0204 8C40.004 8 39.9878 8.00331 39.9727 8.00972C39.9577 8.01613 39.9441 8.02552 39.9328 8.03731C39.4576 8.7096 37.1301 11.9463 34.4325 15.1341C11.2565 44.5352 38.0824 64.3809 38.0824 64.3809L38.3072 64.5305C38.5072 67.5929 39.0079 72 39.0079 72H41.008C41.008 72 41.5081 67.6176 41.7087 64.5305L41.9336 64.3562C41.9578 64.3796 68.7843 44.5365 45.6083 15.1329ZM40.008 63.9311C39.45 63.4675 38.9392 62.9505 38.483 62.3875V62.3374L39.9328 30.32C39.9328 30.3002 39.9408 30.2812 39.9548 30.2671C39.9689 30.2531 39.988 30.2452 40.008 30.2452C40.0279 30.2452 40.047 30.2531 40.0612 30.2671C40.0752 30.2812 40.0831 30.3002 40.0831 30.32L41.5329 62.3374V62.3875C41.0767 62.9505 40.566 63.4675 40.008 63.9311Z" fill="#13AA52"/>
</g>
<defs>
<clipPath id="clip0_11_1278">
<rect width="80" height="80" fill="white"/>
</clipPath>
</defs>
</svg>
