<svg width="26" height="26" viewBox="0 0 26 26" fill="none" xmlns="http://www.w3.org/2000/svg">
<path d="M21.6667 15.8889C19.5 15.8889 16.8364 21.0123 16.6111 23.1111C16.3071 25.9386 18.0556 26 18.0556 26H26V18.7778C26 18.7778 23.517 15.8889 21.6667 15.8889Z" fill="#50A5E6"/>
<path d="M20.9384 21.1673C22.1047 19.1472 22.5915 17.2447 22.0257 16.918C21.4599 16.5914 20.0557 17.9642 18.8894 19.9843C17.7231 22.0043 17.2363 23.9068 17.8022 24.2335C18.368 24.5601 19.7721 23.1873 20.9384 21.1673Z" fill="#1C6399"/>
<path d="M14.5066 0C15.3595 0 16.0507 0.691167 16.0507 1.54411C16.0507 2.11394 16.5331 9.36144 16.5331 9.36144L12.9624 13V1.54411C12.9624 0.691167 13.6536 0 14.5066 0Z" fill="#F9CA55"/>
<path d="M13.6319 3.12217C13.6319 2.32844 14.2473 1.68567 15.0063 1.68567C15.7654 1.68567 16.3807 2.32917 16.3807 3.12217C16.3807 3.12217 16.7671 7.41361 17.2416 9.88939C17.8757 11.2371 18.2303 13.2708 18.1523 14.4018C18.1913 14.6893 22.2148 18.0173 22.2148 18.0173C22.0119 19.3267 20.5833 22.4626 18.7778 23.9099L16.2348 21.7981C14.1512 21.5063 13.0152 19.3924 13.0152 18.7186C13.0152 16.5634 13.6319 3.12217 13.6319 3.12217Z" fill="#FFDC5D"/>
<path d="M4.33333 15.8889C6.5 15.8889 9.16356 21.0123 9.38889 23.1111C9.69295 25.9386 7.94444 26 7.94444 26H0V18.7778C0 18.7778 2.483 15.8889 4.33333 15.8889Z" fill="#50A5E6"/>
<path d="M8.19703 24.2324C8.76285 23.9057 8.27606 22.0033 7.10976 19.9832C5.94346 17.9631 4.53929 16.5903 3.97347 16.917C3.40765 17.2436 3.89444 19.1461 5.06074 21.1662C6.22705 23.1863 7.63121 24.5591 8.19703 24.2324Z" fill="#1C6399"/>
<path d="M11.5996 0.00794445C10.6853 -0.0837778 9.91467 0.631945 9.91467 1.52678C9.91467 2.09011 9.78178 8.97939 9.78178 8.97939L12.9242 13L12.9689 1.61417C12.9689 0.815389 12.3948 0.0873889 11.5996 0.00794445Z" fill="#F9CA55"/>
<path d="M12.3681 3.12217C12.3681 2.32844 11.7527 1.68567 10.9937 1.68567C10.2346 1.68567 9.61928 2.32917 9.61928 3.12217C9.61928 3.12217 9.23289 7.41361 8.75839 9.88939C8.12428 11.2371 7.76967 13.2708 7.84767 14.4018C7.80867 14.6893 3.78517 18.0173 3.78517 18.0173C3.98811 19.3267 5.41667 22.4626 7.22222 23.9099L9.76517 21.7981C11.8488 21.5063 12.9848 19.3924 12.9848 18.7186C12.9848 16.5634 12.3681 3.12217 12.3681 3.12217Z" fill="#FFDC5D"/>
<path d="M12.9697 18.6499C12.6707 18.6499 12.428 18.4073 12.428 18.1083V2.01644C12.428 1.71744 12.6707 1.47478 12.9697 1.47478C13.2687 1.47478 13.5113 1.71744 13.5113 2.01644V18.109C13.5121 18.4073 13.2694 18.6499 12.9697 18.6499Z" fill="#F9CA55"/>
</svg>
