<svg width="80" height="26" viewBox="0 0 80 26" fill="none" xmlns="http://www.w3.org/2000/svg">
<path d="M52.758 5.00666H66.5816V7.55814H61.0979V20.9811H58.3559V7.55814H52.758V5.00666Z" fill="white"/>
<path d="M30.0233 5.00666V7.55814H18.9428V11.6627H27.8538V14.2142H18.9428V18.4297H30.0233V20.9811H16.2009V7.55814H16.1998V5.00666H30.0233Z" fill="white"/>
<path d="M36.9259 5.01332H33.3376L46.19 20.9878H49.7887L43.3617 13.0061L49.7784 5.02551L46.19 5.03106L41.5652 10.7749L36.9259 5.01332Z" fill="white"/>
<path d="M40.608 16.424L38.8111 14.1898L33.3274 21H36.9259L40.608 16.424Z" fill="white"/>
<path fill-rule="evenodd" clip-rule="evenodd" d="M16.297 20.9811L3.42733 5H0V20.9745H2.74187V8.41454L12.8525 20.9811H16.297Z" fill="white"/>
<path d="M67.198 20.8836C66.9972 20.8836 66.8264 20.814 66.6833 20.6749C66.5403 20.5358 66.4696 20.3673 66.4714 20.1678C66.4696 19.9737 66.5403 19.8071 66.6833 19.668C66.8264 19.5289 66.9972 19.4593 67.198 19.4593C67.3912 19.4593 67.5602 19.5289 67.7032 19.668C67.8482 19.8071 67.9205 19.9737 67.9225 20.1678C67.9205 20.2996 67.8871 20.4204 67.8202 20.5284C67.7515 20.6383 67.6643 20.7243 67.5545 20.7866C67.4468 20.8506 67.3279 20.8836 67.198 20.8836Z" fill="white"/>
<path d="M71.8778 14.154H73.0928V18.835C73.091 19.2653 72.9979 19.6332 72.816 19.9426C72.6321 20.252 72.3775 20.4881 72.0506 20.6547C71.7255 20.8195 71.3446 20.9037 70.9117 20.9037C70.5159 20.9037 70.1612 20.8323 69.8454 20.6932C69.5295 20.5541 69.2787 20.3454 69.0948 20.0707C68.9089 19.7961 68.8179 19.4538 68.8179 19.0437H70.0349C70.0367 19.2232 70.0776 19.3787 70.1556 19.5087C70.2335 19.6387 70.3413 19.7375 70.4789 19.8071C70.618 19.8767 70.778 19.9115 70.9581 19.9115C71.1532 19.9115 71.3204 19.8712 71.456 19.7888C71.5916 19.7083 71.6957 19.5874 71.7682 19.4263C71.8387 19.2671 71.876 19.0694 71.8778 18.835V14.154Z" fill="white"/>
<path d="M78.0921 15.9847C78.0624 15.7009 77.9323 15.4794 77.7057 15.322C77.4771 15.1627 77.1818 15.084 76.8194 15.084C76.565 15.084 76.3459 15.1224 76.1638 15.1975C75.9817 15.2744 75.8405 15.3769 75.7438 15.5069C75.6473 15.6368 75.599 15.7851 75.5951 15.9517C75.5951 16.0909 75.6286 16.2117 75.6936 16.3124C75.7587 16.4149 75.8459 16.5009 75.9593 16.5705C76.0707 16.6419 76.1952 16.7005 76.331 16.7481C76.4683 16.7957 76.6059 16.8359 76.7433 16.8689L77.3768 17.0245C77.6314 17.0831 77.8785 17.1618 78.1144 17.2625C78.3503 17.3614 78.564 17.4877 78.7515 17.6396C78.9393 17.7916 79.0879 17.9746 79.1975 18.1888C79.3071 18.403 79.3629 18.6538 79.3629 18.9431C79.3629 19.333 79.2626 19.6753 79.0599 19.9719C78.8575 20.2666 78.5658 20.4973 78.1831 20.6639C77.8022 20.8287 77.3415 20.9129 76.7991 20.9129C76.2752 20.9129 75.8181 20.8323 75.4336 20.6712C75.0473 20.512 74.7461 20.2776 74.5288 19.9701C74.3114 19.6625 74.1944 19.2872 74.1777 18.846H75.3816C75.3983 19.0767 75.4727 19.2689 75.599 19.4245C75.7271 19.5783 75.8943 19.6918 76.0987 19.7687C76.305 19.8437 76.5352 19.8822 76.7898 19.8822C77.0555 19.8822 77.2896 19.8419 77.492 19.7632C77.6926 19.6845 77.8505 19.5747 77.9639 19.4319C78.0792 19.2909 78.1368 19.1243 78.1386 18.9339C78.1368 18.76 78.0846 18.6153 77.9843 18.5018C77.8822 18.3884 77.741 18.2932 77.5607 18.2163C77.3788 18.1394 77.1669 18.0698 76.9254 18.0094L76.1563 17.8154C75.6008 17.6744 75.1605 17.4602 74.839 17.1728C74.5159 16.8854 74.356 16.5046 74.356 16.0268C74.356 15.635 74.4637 15.2909 74.6813 14.9961C74.8966 14.7014 75.1921 14.4725 75.5655 14.3096C75.9408 14.1449 76.3644 14.0643 76.8361 14.0643C77.3155 14.0643 77.7353 14.1449 78.0977 14.3096C78.4599 14.4725 78.7443 14.6996 78.9503 14.9888C79.1566 15.278 79.2644 15.6094 79.27 15.9847H78.0921Z" fill="white"/>
</svg>
