<svg width="32" height="32" viewBox="0 0 80 80" fill="none" xmlns="http://www.w3.org/2000/svg">
<g clip-path="url(#clip0_11_1291)">
<mask id="mask0_11_1291" style="mask-type:alpha" maskUnits="userSpaceOnUse" x="8" y="8" width="64" height="64">
<path d="M40 72C57.6731 72 72 57.6731 72 40C72 22.3269 57.6731 8 40 8C22.3269 8 8 22.3269 8 40C8 57.6731 22.3269 72 40 72Z" fill="black"/>
</mask>
<g mask="url(#mask0_11_1291)">
<path d="M40 72C57.6731 72 72 57.6731 72 40C72 22.3269 57.6731 8 40 8C22.3269 8 8 22.3269 8 40C8 57.6731 22.3269 72 40 72Z" fill="black"/>
<path d="M61.1584 64.0071L32.5838 27.2H27.2V52.7893H31.5071V32.6697L57.7774 66.6116C58.9629 65.8183 60.0921 64.9476 61.1584 64.0071Z" fill="url(#paint0_linear_11_1291)"/>
<path d="M53.1556 27.2H48.8889V52.8H53.1556V27.2Z" fill="url(#paint1_linear_11_1291)"/>
</g>
</g>
<defs>
<linearGradient id="paint0_linear_11_1291" x1="46.7556" y1="49.4222" x2="59.3778" y2="65.0667" gradientUnits="userSpaceOnUse">
<stop stop-color="white"/>
<stop offset="1" stop-color="white" stop-opacity="0"/>
</linearGradient>
<linearGradient id="paint1_linear_11_1291" x1="51.0222" y1="27.2" x2="50.9508" y2="46" gradientUnits="userSpaceOnUse">
<stop stop-color="white"/>
<stop offset="1" stop-color="white" stop-opacity="0"/>
</linearGradient>
<clipPath id="clip0_11_1291">
<rect width="80" height="80" fill="white"/>
</clipPath>
</defs>
</svg>
