<svg width="25" height="28" viewBox="0 0 25 28" fill="none" xmlns="http://www.w3.org/2000/svg">
<path d="M12.112 27.4268C11.7579 27.426 11.4101 27.3335 11.1027 27.1585L7.89387 25.2755C7.41538 25.0072 7.64958 24.9151 7.80536 24.8636C8.31475 24.7069 8.80219 24.4868 9.25608 24.2084C9.29413 24.1902 9.33641 24.1825 9.37848 24.1861C9.42055 24.1898 9.46087 24.2046 9.4952 24.229L11.9601 25.6789C12.0053 25.7042 12.0563 25.7175 12.1082 25.7175C12.1601 25.7175 12.2112 25.7042 12.2564 25.6789L21.8626 20.178C21.9068 20.1508 21.9433 20.113 21.9688 20.068C21.9943 20.0229 22.0078 19.9722 22.0083 19.9205V8.92187C22.0081 8.86879 21.9941 8.81665 21.9677 8.77054C21.9412 8.72443 21.9032 8.68593 21.8574 8.65878L12.2577 3.16305C12.2125 3.1377 12.1614 3.12438 12.1095 3.12438C12.0576 3.12438 12.0066 3.1377 11.9614 3.16305L2.36684 8.66264C2.32056 8.68931 2.28221 8.72771 2.25571 8.77393C2.22921 8.82015 2.21549 8.87253 2.21597 8.92573V19.92C2.21562 19.9718 2.22949 20.0227 2.25607 20.0673C2.28266 20.1118 2.32095 20.1483 2.36684 20.1728L4.99812 21.6793C6.42814 22.3861 7.30126 21.5554 7.30126 20.7144V9.85966C7.30125 9.82326 7.30855 9.78722 7.32273 9.75366C7.33692 9.7201 7.35769 9.68969 7.38385 9.66423C7.41 9.63876 7.441 9.61875 7.47504 9.60537C7.50907 9.59198 7.54545 9.58549 7.58204 9.58628H8.7983C8.87195 9.58559 8.94287 9.61399 8.9955 9.66523C9.04814 9.71648 9.07819 9.7864 9.07908 9.85966V20.7198C9.07908 22.608 8.03904 23.6915 6.23457 23.6915C5.67819 23.6915 5.24137 23.6915 4.02459 23.093L1.50899 21.6535C1.20188 21.4774 0.946887 21.2239 0.769739 20.9184C0.592591 20.613 0.49955 20.2665 0.500002 19.9139V8.92187C0.500413 8.56953 0.593856 8.22347 0.770976 7.91834C0.948096 7.61321 1.20268 7.35972 1.50924 7.18323L11.103 1.68235C11.4127 1.51463 11.7596 1.42676 12.1122 1.42676C12.4648 1.42676 12.8118 1.51463 13.1215 1.68235L22.7253 7.18709C23.0323 7.36308 23.2873 7.61646 23.4645 7.92171C23.6416 8.22695 23.7348 8.57326 23.7346 8.92573V19.92C23.7335 20.2723 23.6398 20.6181 23.4628 20.9231C23.2857 21.2281 23.0315 21.4817 22.7253 21.6587L13.1207 27.1585C12.8136 27.3341 12.4657 27.4266 12.1115 27.4268H12.112ZM19.8653 16.5872C19.8653 14.5278 18.4612 13.9818 15.5129 13.5949C12.5281 13.2028 12.2264 13.0028 12.2264 12.3103C12.2264 11.7376 12.4813 10.9741 14.6912 10.9741C16.6621 10.9741 17.3901 11.397 17.6918 12.7178C17.7055 12.7791 17.7397 12.834 17.7888 12.8733C17.838 12.9127 17.8991 12.9343 17.9622 12.9346H19.2101C19.2482 12.9349 19.2859 12.9273 19.3209 12.9122C19.3558 12.897 19.3872 12.8748 19.4129 12.8468C19.4387 12.8182 19.4584 12.7847 19.4709 12.7483C19.4834 12.712 19.4884 12.6735 19.4857 12.6352C19.2931 10.3601 17.7697 9.30234 14.6912 9.30234C11.9508 9.30234 10.3179 10.4476 10.3179 12.3721C10.3179 14.4572 11.9456 15.0341 14.5717 15.2923C17.7177 15.5966 17.9617 16.0558 17.9617 16.6698C17.9617 17.7327 17.0984 18.1865 15.0755 18.1865C12.5328 18.1865 11.9764 17.552 11.789 16.2983C11.7789 16.2332 11.7454 16.1738 11.6947 16.1313C11.6441 16.0887 11.5797 16.0658 11.5134 16.0667H10.2713C10.2351 16.0664 10.1992 16.0733 10.1657 16.087C10.1322 16.1006 10.1018 16.1207 10.0761 16.1462C10.0505 16.1716 10.0302 16.2018 10.0164 16.2351C10.0026 16.2684 9.99554 16.304 9.99568 16.34C9.99568 17.9446 10.8755 19.8585 15.0815 19.8585C18.1183 19.8534 19.8656 18.6615 19.8656 16.5877L19.8653 16.5872Z" fill="#10A40B" stroke="#10A40B"/>
</svg>
