<svg width="32" height="32" viewBox="0 0 80 80" fill="none" xmlns="http://www.w3.org/2000/svg">
<g clip-path="url(#clip0_12_12)">
<path d="M39.5834 72C38.7117 71.9981 37.8556 71.7707 37.0991 71.3401L29.2003 66.7046C28.0225 66.0444 28.599 65.8175 28.9825 65.6908C30.2363 65.305 31.4362 64.7632 32.5535 64.0781C32.6471 64.0333 32.7512 64.0143 32.8548 64.0232C32.9583 64.0321 33.0576 64.0686 33.1421 64.1288L39.2095 67.6976C39.3208 67.76 39.4464 67.7928 39.5741 67.7928C39.7019 67.7928 39.8275 67.76 39.9388 67.6976L63.5848 54.1569C63.6936 54.0901 63.7836 53.997 63.8463 53.8861C63.9091 53.7753 63.9425 53.6504 63.9435 53.5232V26.4495C63.9432 26.3189 63.9088 26.1905 63.8437 26.077C63.7786 25.9635 63.685 25.8688 63.5721 25.802L39.942 12.274C39.8307 12.2115 39.7051 12.1788 39.5773 12.1788C39.4496 12.1788 39.324 12.2115 39.2127 12.274L15.5953 25.8115C15.4814 25.8771 15.387 25.9716 15.3218 26.0854C15.2565 26.1991 15.2228 26.3281 15.2239 26.459V53.522C15.2231 53.6495 15.2572 53.7748 15.3226 53.8845C15.3881 53.9942 15.4824 54.0839 15.5953 54.1442L22.0723 57.8524C25.5924 59.5924 27.7416 57.5476 27.7416 55.4775V28.7579C27.7416 28.6683 27.7596 28.5797 27.7945 28.497C27.8294 28.4144 27.8805 28.3396 27.9449 28.2769C28.0093 28.2142 28.0856 28.165 28.1693 28.132C28.2532 28.099 28.3427 28.083 28.4327 28.085H31.4266C31.6079 28.0833 31.7825 28.1532 31.912 28.2794C32.0416 28.4055 32.1156 28.5776 32.1178 28.7579V55.4908C32.1178 60.1386 29.5577 62.8058 25.1159 62.8058C23.7463 62.8058 22.6711 62.8057 19.6759 61.3324L13.4837 57.7891C12.7277 57.3555 12.1 56.7314 11.664 55.9796C11.2279 55.2277 10.9989 54.3748 11 53.5068V26.4495C11.001 25.5823 11.231 24.7304 11.667 23.9793C12.103 23.2282 12.7297 22.6042 13.4843 22.1698L37.0997 8.62914C37.862 8.2163 38.7161 8 39.584 8C40.4519 8 41.3061 8.2163 42.0683 8.62914L65.7086 22.1793C66.4643 22.6125 67.0918 23.2363 67.528 23.9876C67.9641 24.7389 68.1935 25.5914 68.1929 26.459V53.522C68.1903 54.389 67.9597 55.2403 67.5238 55.991C67.088 56.7419 66.4622 57.3661 65.7086 57.8017L42.0664 71.3401C41.3105 71.772 40.454 72 39.5821 72H39.5834ZM58.6685 45.318C58.6685 40.2488 55.2121 38.9048 47.9548 37.9524C40.6077 36.9873 39.8649 36.4949 39.8649 34.7904C39.8649 33.3805 40.4924 31.5011 45.9323 31.5011C50.7837 31.5011 52.5756 32.5422 53.3183 35.7935C53.352 35.9443 53.4362 36.0793 53.5572 36.1762C53.6782 36.2732 53.8287 36.3264 53.984 36.327H57.0556C57.1494 36.3278 57.2424 36.3091 57.3284 36.2719C57.4145 36.2346 57.4917 36.1798 57.555 36.1109C57.6184 36.0405 57.6669 35.9581 57.6976 35.8686C57.7284 35.7791 57.7408 35.6844 57.734 35.5901C57.2601 29.9898 53.5101 27.3861 45.9323 27.3861C39.1865 27.3861 35.1671 30.2052 35.1671 34.9425C35.1671 40.0751 39.1738 41.4951 45.6381 42.1307C53.382 42.8797 53.9827 44.0101 53.9827 45.5214C53.9827 48.1378 51.8577 49.255 46.8783 49.255C40.6191 49.255 39.2496 47.693 38.7884 44.607C38.7634 44.4466 38.681 44.3006 38.5564 44.1958C38.4317 44.091 38.2732 44.0345 38.11 44.0367H35.0524C34.9634 44.0362 34.875 44.0532 34.7926 44.0867C34.7101 44.1203 34.6352 44.1699 34.5721 44.2324C34.509 44.295 34.459 44.3694 34.425 44.4514C34.391 44.5333 34.3737 44.621 34.374 44.7097C34.374 48.6593 36.5398 53.3705 46.8929 53.3705C54.3681 53.3579 58.6691 50.424 58.6691 45.3193L58.6685 45.318Z" fill="#10A40B" stroke="#10A40B"/>
</g>
<defs>
<clipPath id="clip0_12_12">
<rect width="80" height="80" fill="white"/>
</clipPath>
</defs>
</svg>
