<svg width="32" height="32" viewBox="0 0 80 80" fill="none" xmlns="http://www.w3.org/2000/svg">
<g clip-path="url(#clip0_37_20)">
<path d="M14.4854 53.5344C11.4658 53.5344 8.95737 52.4407 6.96016 50.2533C4.98672 48.0421 4 44.8323 4 40.6239C4 36.3917 5.0105 33.063 7.03149 30.6378C9.05248 28.2126 12.084 27 16.1259 27C19.1693 27 21.6777 28.0937 23.6512 30.2811C25.6246 32.4448 26.6113 35.6427 26.6113 39.8749C26.6113 44.0833 25.6008 47.412 23.5798 49.861C21.5588 52.3099 18.5274 53.5344 14.4854 53.5344ZM15.163 50.1106C17.8497 50.1106 19.7281 49.2428 20.798 47.5071C21.8917 45.7477 22.4386 43.1798 22.4386 39.8036C22.4386 36.4273 21.8204 34.0259 20.584 32.5993C19.3714 31.149 17.6714 30.4238 15.484 30.4238C12.7497 30.4238 10.8476 31.363 9.77765 33.2413C8.80282 34.977 8.31541 37.4973 8.31541 40.8022C8.31541 44.0833 8.92171 46.4609 10.1343 47.9351C11.3469 49.3854 13.0231 50.1106 15.163 50.1106Z" fill="black"/>
<path d="M41.3731 53.5344C38.3535 53.5344 35.8451 52.4407 33.8479 50.2533C31.8744 48.0421 30.8877 44.8323 30.8877 40.6239C30.8877 36.3917 31.8982 33.063 33.9192 30.6378C35.9402 28.2126 38.9717 27 43.0137 27C46.057 27 48.5654 28.0937 50.5389 30.2811C52.5123 32.4448 53.499 35.6427 53.499 39.8749C53.499 44.0833 52.4885 47.412 50.4675 49.861C48.4466 52.3099 45.4151 53.5344 41.3731 53.5344ZM42.0507 50.1106C44.7374 50.1106 46.6158 49.2428 47.6857 47.5071C48.7794 45.7477 49.3263 43.1798 49.3263 39.8036C49.3263 36.4273 48.7081 34.0259 47.4717 32.5993C46.2591 31.149 44.5591 30.4238 42.3717 30.4238C39.6374 30.4238 37.7353 31.363 36.6654 33.2413C35.6905 34.977 35.2031 37.4973 35.2031 40.8022C35.2031 44.0833 35.8094 46.4609 37.022 47.9351C38.2346 49.3854 39.9108 50.1106 42.0507 50.1106Z" fill="black"/>
<path d="M59.4873 53.1064V27.642C61.3419 27.3566 64.1832 27.214 68.0111 27.214C70.579 27.214 72.5524 27.9511 73.9315 29.4252C75.3105 30.8755 76 32.849 76 35.3455C76 37.842 75.1678 39.9106 73.5035 41.5511C71.8629 43.1917 69.6161 44.012 66.7629 44.012C66.1923 44.012 65.1223 43.9882 63.5531 43.9407V53.1064H59.4873ZM63.5531 40.8022C64.1237 40.8259 65.051 40.8378 66.3349 40.8378C68.2846 40.8378 69.6636 40.398 70.472 39.5183C71.3042 38.6385 71.7203 37.3546 71.7203 35.6665C71.7203 33.9784 71.3398 32.6825 70.579 31.779C69.8182 30.8755 68.558 30.4238 66.7985 30.4238C65.7286 30.4238 64.6468 30.4595 63.5531 30.5308V40.8022Z" fill="black"/>
</g>
<defs>
<clipPath id="clip0_37_20">
<rect width="80" height="80" fill="white"/>
</clipPath>
</defs>
</svg>
