<svg width="30" height="27" viewBox="0 0 30 27" fill="none" xmlns="http://www.w3.org/2000/svg">
<path d="M24.3955 9.2411C24.0805 9.13659 23.7655 9.03792 23.4505 8.94508C23.5022 8.7304 23.5496 8.51572 23.5964 8.30155C24.314 4.84298 23.8415 2.06345 22.249 1.14552C20.7148 0.270327 18.2123 1.18027 15.6805 3.37393C15.4298 3.58861 15.1847 3.81488 14.9513 4.04114C14.7937 3.8903 14.6304 3.73946 14.4671 3.59428C11.8127 1.25055 9.15258 0.263892 7.56013 1.18671C6.03186 2.0686 5.57668 4.6857 6.21843 7.95894C6.2826 8.28379 6.35247 8.60247 6.43424 8.92809C6.06084 9.0326 5.69339 9.14869 5.34923 9.27045C2.23419 10.3436 0 12.0381 0 13.7906C0 15.601 2.38066 17.4175 5.61757 18.52C5.87996 18.607 6.14261 18.694 6.41095 18.7694C6.32349 19.1177 6.24767 19.4601 6.17806 19.814C5.56556 23.0345 6.04402 25.588 7.57229 26.4642C9.14741 27.3695 11.7956 26.441 14.374 24.1954C14.5781 24.0152 14.7823 23.8299 14.9865 23.6324C15.2432 23.8819 15.5115 24.12 15.7799 24.3532C18.2764 26.4897 20.744 27.3533 22.2666 26.4771C23.8417 25.5718 24.3549 22.827 23.6898 19.4845C23.6381 19.2292 23.5798 18.9681 23.5149 18.7012C23.7015 18.6497 23.8824 18.591 24.0632 18.5329C27.4293 17.4232 29.8671 15.6298 29.8671 13.7906C29.8671 12.0322 27.569 10.3263 24.3955 9.2411ZM16.5031 4.31451C18.6731 2.43541 20.6975 1.69741 21.6189 2.22536C22.6048 2.78832 22.9839 5.06306 22.3657 8.05135C22.3249 8.24853 22.284 8.44004 22.2317 8.63155C20.9382 8.33998 19.6266 8.13446 18.3057 8.01634C17.5482 6.93489 16.7183 5.90549 15.8215 4.93513C16.0477 4.72071 16.2697 4.51761 16.5031 4.31451ZM9.75344 16.8023C10.051 17.3071 10.3543 17.8121 10.6752 18.3053C9.76595 18.2067 8.8625 18.0611 7.96847 17.8693C8.24133 16.993 8.55873 16.1311 8.91944 15.2869C9.18778 15.7976 9.46285 16.3024 9.7537 16.8015L9.75344 16.8023ZM7.9858 9.82131C8.82576 9.63571 9.71954 9.48461 10.6459 9.36878C10.3367 9.85039 10.0334 10.3436 9.74749 10.8427C9.46284 11.3359 9.18157 11.8407 8.91944 12.3514C8.55199 11.4868 8.2425 10.6396 7.9858 9.82131ZM9.58421 13.8194C9.96925 13.0186 10.3892 12.2353 10.8325 11.4633C11.2758 10.6914 11.7542 9.94306 12.2557 9.20609C13.1306 9.14226 14.0234 9.10751 14.9332 9.10751C15.843 9.10751 16.7414 9.14226 17.6106 9.20609C18.1064 9.93731 18.5789 10.6859 19.0282 11.4517C19.4774 12.2176 19.8993 12.999 20.294 13.796C19.9031 14.5967 19.4832 15.3861 19.0341 16.1642C18.5908 16.9364 18.1183 17.6844 17.6225 18.4273C16.7533 18.4912 15.8492 18.5203 14.9334 18.5203C14.0177 18.5203 13.1309 18.4912 12.2733 18.4389C11.7658 17.702 11.2874 16.9476 10.8382 16.1758C10.389 15.4035 9.97494 14.6205 9.58395 13.8197L9.58421 13.8194ZM20.1196 16.7907C20.4172 16.28 20.6972 15.7636 20.9712 15.2414C21.3437 16.081 21.6727 16.939 21.9571 17.8121C21.0519 18.0159 20.1363 18.1705 19.2142 18.2755C19.5304 17.7887 19.8278 17.2896 20.1196 16.7907ZM20.9601 12.3514C20.6858 11.8407 20.4058 11.33 20.1142 10.8311C19.8284 10.3379 19.5309 9.85048 19.2217 9.36878C20.1215 9.47816 21.0151 9.6328 21.8992 9.83212C21.6306 10.6876 21.3171 11.5285 20.9601 12.3514ZM14.9453 5.82243C15.5574 6.48407 16.1337 7.17748 16.6721 7.89973C15.517 7.84825 14.3561 7.84825 13.2012 7.89973C13.7729 7.15195 14.3616 6.45566 14.9453 5.82243ZM8.17859 2.26603C9.15854 1.69741 11.3355 2.5098 13.6269 4.52919C13.7729 4.6579 13.9186 4.79613 14.0702 4.93539C13.1672 5.90546 12.3309 6.93486 11.5669 8.0166C10.2485 8.13359 8.93909 8.33513 7.64682 8.61997C7.571 8.32395 7.50683 8.02226 7.44265 7.72058C6.89433 4.91196 7.25608 2.79398 8.17755 2.26578L8.17859 2.26603ZM6.74942 17.5624C6.50436 17.4927 6.26526 17.4172 6.02487 17.3362C4.78279 16.9475 3.3707 16.3323 2.35038 15.5258C2.05911 15.3254 1.81174 15.0684 1.62324 14.7702C1.43474 14.4719 1.30903 14.1388 1.25373 13.7908C1.25373 12.729 3.09718 11.3712 5.75627 10.4484C6.08878 10.3323 6.42699 10.2278 6.76546 10.1292C7.16203 11.3885 7.6394 12.6212 8.19463 13.8197C7.63403 15.0357 7.15133 16.2858 6.74942 17.5624ZM13.5511 23.2492C12.5895 24.1262 11.4744 24.8205 10.2611 25.2976C9.94149 25.4502 9.59369 25.5356 9.2394 25.5486C8.88511 25.5615 8.53194 25.5018 8.20187 25.3731C7.27445 24.8392 6.88941 22.7907 7.41445 20.0343C7.47862 19.7095 7.54849 19.3844 7.63026 19.0652C8.93594 19.3447 10.2594 19.5347 11.5912 19.6338C12.3627 20.7201 13.2045 21.7552 14.1113 22.7325C13.9245 22.9127 13.7377 23.0867 13.5511 23.2492ZM14.9803 21.8391C14.3851 21.2007 13.7899 20.4928 13.2126 19.7327C13.7726 19.7558 14.3512 19.7674 14.9334 19.7674C15.5343 19.7674 16.1238 19.7558 16.7068 19.7267C16.1701 20.4615 15.594 21.1666 14.9803 21.8391ZM22.6046 23.5799C22.5777 23.9321 22.4784 24.275 22.3128 24.5875C22.1472 24.8999 21.9189 25.1752 21.642 25.3962C20.7145 25.9301 18.7368 25.2338 16.602 23.4116C16.3569 23.2026 16.1119 22.9763 15.8611 22.7444C16.7526 21.7652 17.5751 20.726 18.3228 19.6341C19.6615 19.5237 20.9909 19.3201 22.301 19.0248C22.3593 19.2626 22.4118 19.5007 22.4586 19.7327C22.7434 20.9954 22.7929 22.2994 22.6046 23.5799ZM23.6655 17.3418C23.5022 17.3933 23.339 17.4463 23.1697 17.4927C22.7584 16.2266 22.2614 14.9896 21.6821 13.7903C22.2397 12.6067 22.7172 11.3873 23.1112 10.1402C23.4145 10.2272 23.7064 10.3204 23.9861 10.4131C26.7045 11.3416 28.6121 12.7226 28.6121 13.7787C28.6121 14.916 26.5764 16.3843 23.6655 17.3418ZM14.9337 16.4715C15.4621 16.4715 15.9787 16.3156 16.418 16.0236C16.8574 15.7316 17.1999 15.3165 17.4021 14.8308C17.6043 14.3452 17.6572 13.8108 17.5541 13.2952C17.451 12.7797 17.1966 12.3061 16.8229 11.9344C16.4493 11.5627 15.9732 11.3096 15.4549 11.2071C14.9367 11.1045 14.3995 11.1571 13.9113 11.3583C13.4231 11.5595 13.0058 11.9001 12.7122 12.3372C12.4186 12.7742 12.2619 13.2881 12.2619 13.8138C12.2619 14.1628 12.3309 14.5084 12.4652 14.8309C12.5994 15.1534 12.7962 15.4464 13.0443 15.6932C13.2924 15.94 13.587 16.1358 13.9112 16.2693C14.2354 16.4029 14.5828 16.4716 14.9337 16.4715Z" fill="#61DAFB"/>
</svg>
