<svg width="32" height="32" viewBox="0 0 80 80" fill="none" xmlns="http://www.w3.org/2000/svg">
<g clip-path="url(#clip0_12_18)">
<path d="M63.0505 28.7389C62.2751 28.4817 61.4997 28.2388 60.7243 28.0102C60.8517 27.4818 60.9683 26.9534 61.0836 26.4262C62.8499 17.9128 61.6868 11.0709 57.7669 8.81134C53.9903 6.657 47.8302 8.89688 41.5982 14.2966C40.9809 14.8251 40.3777 15.382 39.8032 15.939C39.4153 15.5677 39.0134 15.1964 38.6114 14.839C32.0774 9.06986 25.5294 6.64116 21.6096 8.91272C17.8477 11.0835 16.7272 17.5256 18.3069 25.5828C18.4649 26.3825 18.6369 27.1669 18.8381 27.9685C17.919 28.2257 17.0145 28.5115 16.1673 28.8112C8.49956 31.4528 3 35.6239 3 39.9377C3 44.3939 8.86008 48.8655 16.8279 51.5793C17.4738 51.7935 18.1203 52.0076 18.7808 52.1933C18.5655 53.0506 18.3789 53.8933 18.2075 54.7646C16.6998 62.6918 17.8776 68.9775 21.6395 71.1343C25.5167 73.3628 32.0354 71.0773 38.3821 65.5495C38.8847 65.106 39.3873 64.6498 39.8898 64.1638C40.5217 64.7778 41.1822 65.3639 41.8428 65.9379C47.9882 71.1972 54.0623 73.3227 57.8102 71.166C61.6874 68.9375 62.9505 62.1812 61.3135 53.9535C61.1861 53.325 61.0426 52.6823 60.8829 52.0253C61.3422 51.8987 61.7874 51.7542 62.2326 51.611C70.5183 48.8794 76.5191 44.465 76.5191 39.9377C76.5191 35.6094 70.8622 31.4103 63.0505 28.7389ZM43.6231 16.6119C48.9647 11.9864 53.9476 10.1698 56.2159 11.4694C58.6427 12.8552 59.5759 18.4545 58.0541 25.8103C57.9535 26.2957 57.8529 26.7671 57.7242 27.2385C54.5403 26.5208 51.3117 26.0149 48.0602 25.7241C46.1956 23.0621 44.1526 20.5282 41.9453 18.1396C42.502 17.6118 43.0485 17.1118 43.6231 16.6119ZM27.0085 47.3511C27.741 48.5936 28.4875 49.8368 29.2774 51.0509C27.0393 50.808 24.8154 50.4498 22.6147 49.9775C23.2864 47.8206 24.0677 45.699 24.9555 43.6209C25.6161 44.878 26.2932 46.1206 27.0091 47.3492L27.0085 47.3511ZM22.6574 30.1671C24.725 29.7103 26.925 29.3383 29.2054 29.0532C28.4442 30.2387 27.6977 31.4528 26.9938 32.6814C26.2932 33.8954 25.6008 35.1379 24.9555 36.3951C24.0511 34.2667 23.2892 32.1814 22.6574 30.1671ZM26.5919 40.0086C27.5397 38.0374 28.5735 36.1093 29.6646 34.2091C30.7557 32.3088 31.9335 30.4668 33.1679 28.6528C35.3215 28.4956 37.519 28.4101 39.7586 28.4101C41.9982 28.4101 44.2097 28.4956 46.3493 28.6528C47.5697 30.4527 48.7328 32.2953 49.8386 34.1805C50.9443 36.0657 51.9831 37.9893 52.9546 39.951C51.9924 41.922 50.9586 43.8651 49.8532 45.7804C48.7621 47.6813 47.599 49.5225 46.3786 51.3512C44.239 51.5083 42.0135 51.5799 39.7592 51.5799C37.505 51.5799 35.3221 51.5083 33.2112 51.3797C31.962 49.5658 30.7844 47.7089 29.6786 45.8088C28.5729 43.908 27.5537 41.9805 26.5913 40.0093L26.5919 40.0086ZM52.5253 47.3226C53.2578 46.0655 53.947 44.7944 54.6215 43.5088C55.5383 45.5756 56.3484 47.6877 57.0484 49.8368C54.8202 50.3383 52.5663 50.7191 50.2966 50.9774C51.0749 49.7792 51.8068 48.5506 52.5253 47.3226ZM54.5942 36.3951C53.919 35.1379 53.2298 33.8808 52.5119 32.6528C51.8083 31.4388 51.076 30.2389 50.315 29.0532C52.5299 29.3225 54.7296 29.7031 56.9057 30.1938C56.2445 32.2996 55.4729 34.3695 54.5942 36.3951ZM39.7885 20.3237C41.2951 21.9524 42.7139 23.6593 44.039 25.4371C41.1956 25.3104 38.3382 25.3104 35.4954 25.4371C36.9025 23.5964 38.3516 21.8824 39.7885 20.3237ZM23.1319 11.5695C25.5441 10.1698 30.9029 12.1696 36.5432 17.1404C36.9025 17.4572 37.2611 17.7975 37.6343 18.1402C35.4117 20.5281 33.353 23.062 31.4723 25.7247C28.2271 26.0127 25.004 26.5089 21.823 27.21C21.6363 26.4813 21.4784 25.7387 21.3204 24.9961C19.9707 18.0826 20.8611 12.8691 23.1294 11.5689L23.1319 11.5695ZM19.614 49.2222C19.0107 49.0505 18.4222 48.8649 17.8305 48.6652C14.773 47.7084 11.2971 46.1941 8.78555 44.209C8.06858 43.7158 7.45967 43.083 6.99566 42.349C6.53166 41.6149 6.22223 40.7948 6.08609 39.9383C6.08609 37.3246 10.6238 33.9822 17.1693 31.7106C17.9878 31.4249 18.8203 31.1676 19.6534 30.9249C20.6296 34.0248 21.8047 37.0591 23.1714 40.0093C21.7915 43.0026 20.6033 46.0797 19.614 49.2222ZM36.3566 63.2203C33.9895 65.3792 31.2447 67.0882 28.2582 68.2627C27.4714 68.6382 26.6152 68.8484 25.7432 68.8804C24.8711 68.9123 24.0017 68.7653 23.1892 68.4483C20.9064 67.1342 19.9586 62.0918 21.251 55.3069C21.4089 54.5073 21.5809 53.707 21.7822 52.9213C24.9962 53.6093 28.2538 54.077 31.5322 54.321C33.4313 56.9949 35.5035 59.5428 37.7356 61.9486C37.2757 62.3921 36.8158 62.8205 36.3566 63.2203ZM39.8745 59.7493C38.4095 58.1779 36.9445 56.4354 35.5234 54.5643C36.9018 54.6214 38.3261 54.6498 39.7592 54.6498C41.2383 54.6498 42.6893 54.6214 44.1244 54.5498C42.8034 56.3584 41.3852 58.0941 39.8745 59.7493ZM58.6421 64.0345C58.576 64.9014 58.3315 65.7456 57.9239 66.5146C57.5163 67.2837 56.9542 67.9613 56.2726 68.5054C53.9897 69.8195 49.1214 68.1056 43.8664 63.6202C43.2632 63.1056 42.66 62.5486 42.0428 61.9778C44.2373 59.5675 46.2619 57.0093 48.1022 54.3217C51.3977 54.0499 54.6699 53.5487 57.8949 52.8219C58.0382 53.4073 58.1675 53.9934 58.2828 54.5643C58.9839 57.6726 59.1056 60.8825 58.6421 64.0345ZM61.2536 48.6792C60.8517 48.8059 60.4498 48.9365 60.0332 49.0505C59.0207 45.9339 57.7973 42.8892 56.3713 39.937C57.7439 37.0234 58.9192 34.0218 59.8893 30.9522C60.6358 31.1663 61.3543 31.3957 62.0428 31.6238C68.7341 33.9093 73.4298 37.3087 73.4298 39.9085C73.4298 42.7079 68.4188 46.3221 61.2536 48.6792ZM39.7599 46.5369C41.0606 46.5369 42.3321 46.1532 43.4137 45.4344C44.4952 44.7155 45.3382 43.6937 45.836 42.4983C46.3337 41.3029 46.4639 39.9874 46.2102 38.7184C45.9564 37.4493 45.3301 36.2836 44.4103 35.3687C43.4905 34.4537 42.3187 33.8306 41.0429 33.5782C39.7672 33.3258 38.4449 33.4553 37.2431 33.9505C36.0414 34.4456 35.0142 35.2842 34.2916 36.36C33.569 37.4359 33.1832 38.7007 33.1832 39.9947C33.183 40.8539 33.353 41.7047 33.6835 42.4985C34.0139 43.2923 34.4984 44.0135 35.1091 44.6211C35.7199 45.2286 36.4449 45.7105 37.2429 46.0392C38.0409 46.368 38.8962 46.5371 39.7599 46.5369Z" fill="#61DAFB"/>
</g>
<defs>
<clipPath id="clip0_12_18">
<rect width="80" height="80" fill="white"/>
</clipPath>
</defs>
</svg>
