<svg width="32" height="32" viewBox="0 0 80 80" fill="none" xmlns="http://www.w3.org/2000/svg">
<path d="M52.48 52.32C54.8 52.08 56.56 50.08 56.48 47.68C56.4 45.28 54.4 43.36 52 43.36H51.84C49.36 43.44 47.44 45.52 47.52 48C47.6 49.2 48.08 50.24 48.8 50.96C46.08 56.32 41.92 60.24 35.68 63.52C31.44 65.76 27.04 66.56 22.64 66C19.04 65.52 16.24 63.92 14.48 61.28C11.92 57.36 11.68 53.12 13.84 48.88C15.36 45.84 17.76 43.6 19.28 42.48C18.96 41.44 18.48 39.68 18.24 38.4C6.63999 46.8 7.83999 58.16 11.36 63.52C14 67.52 19.36 70 25.28 70C26.88 70 28.48 69.84 30.08 69.44C40.32 67.44 48.08 61.36 52.48 52.32Z" fill="white"/>
<path d="M66.56 42.4C60.48 35.28 51.52 31.36 41.28 31.36H40C39.28 29.92 37.76 28.96 36.08 28.96H35.92C33.44 29.04 31.52 31.12 31.6 33.6C31.68 36 33.68 37.92 36.08 37.92H36.24C38 37.84 39.52 36.72 40.16 35.2H41.6C47.68 35.2 53.44 36.96 58.64 40.4C62.64 43.04 65.52 46.48 67.12 50.64C68.48 54 68.4 57.28 66.96 60.08C64.72 64.32 60.96 66.64 56 66.64C52.8 66.64 49.76 65.68 48.16 64.96C47.28 65.76 45.68 67.04 44.56 67.84C48 69.44 51.52 70.32 54.88 70.32C62.56 70.32 68.24 66.08 70.4 61.84C72.72 57.2 72.56 49.2 66.56 42.4Z" fill="white"/>
<path d="M25.92 53.68C26 56.08 28 58 30.4 58H30.56C33.04 57.92 34.96 55.84 34.88 53.36C34.8 50.96 32.8 49.04 30.4 49.04H30.24C30.08 49.04 29.84 49.04 29.68 49.12C26.4 43.68 25.04 37.76 25.52 31.36C25.84 26.56 27.44 22.4 30.24 18.96C32.56 16 37.04 14.56 40.08 14.48C48.56 14.32 52.16 24.88 52.4 29.12C53.44 29.36 55.2 29.92 56.4 30.32C55.44 17.36 47.44 10.64 39.76 10.64C32.56 10.64 25.92 15.84 23.28 23.52C19.6 33.76 22 43.6 26.48 51.36C26.08 51.92 25.84 52.8 25.92 53.68Z" fill="white"/>
</svg>
