<svg width="32" height="32" viewBox="0 0 80 80" fill="none" xmlns="http://www.w3.org/2000/svg">
<g clip-path="url(#clip0_37_40)">
<path d="M4 51.021V28.4737C5.6421 28.2211 8.15788 28.0947 11.5473 28.0947C13.821 28.0947 15.5684 28.7474 16.7894 30.0526C18.0105 31.3368 18.621 32.9895 18.621 35.0105C18.621 36.4 18.2842 37.6315 17.6105 38.7052C16.9368 39.7579 15.9684 40.5579 14.7052 41.1052L16.821 46.0315C17.2 46.8947 17.6736 47.5684 18.2421 48.0526C18.8105 48.5157 19.421 48.7473 20.0736 48.7473L19.5684 51.2104H18.8105C17.8421 51.2104 16.8842 50.9578 15.9368 50.4526C15.0105 49.9262 14.3158 49.1473 13.8526 48.1157L11.0105 41.8315C10.8421 41.8526 10.5684 41.8631 10.1895 41.8631H7.59999V51.021H4ZM7.59999 39.0842H12.9052C13.2 38.9789 13.5263 38.7263 13.8842 38.3263C14.5158 37.6105 14.8315 36.5789 14.8315 35.2316C14.8315 32.3684 13.4842 30.9368 10.7895 30.9368C9.86314 30.9368 8.79998 30.9895 7.59999 31.0947V39.0842Z" fill="white"/>
<path d="M24.9086 51.021V28.2842H38.077V31.221H28.5086V38.1052H36.8139V40.8526H28.5086V48.0841H38.7086L38.2665 51.021H24.9086Z" fill="white"/>
<path d="M41.9812 49.5683L43.0865 46.6315C45.2549 47.8105 47.0654 48.3999 48.518 48.3999C49.9706 48.3999 51.0759 48.1157 51.8338 47.5473C52.5917 46.9789 52.9706 46.1999 52.9706 45.2105C52.9706 44.1157 52.4864 43.2421 51.518 42.5894C50.9706 42.2315 50.5075 41.9684 50.1285 41.8C49.7706 41.6315 49.2022 41.3894 48.4233 41.0736C47.6654 40.7368 47.0759 40.4736 46.6549 40.2842C46.2338 40.0736 45.7286 39.7789 45.1391 39.4C44.5707 39 44.1286 38.6 43.8128 38.2C42.9917 37.2105 42.5812 36.0105 42.5812 34.6C42.5812 32.6421 43.2549 31.0526 44.6022 29.8316C45.9707 28.6105 47.6864 28 49.7496 28C51.0127 28 52.2338 28.2105 53.4127 28.6316C54.5917 29.0526 55.4969 29.4737 56.1285 29.8947L54.8654 32.6421C52.8022 31.5684 51.1917 31.0316 50.0338 31.0316C48.8759 31.0316 47.9496 31.3158 47.2549 31.8842C46.5601 32.4316 46.2128 33.1579 46.2128 34.0631C46.2128 35.0737 46.6654 35.8842 47.5707 36.4947C48.3285 37 49.2022 37.4631 50.1917 37.8842C51.1812 38.3052 51.8759 38.6105 52.2759 38.8C52.697 38.9894 53.2233 39.2947 53.8548 39.7157C54.4864 40.1368 54.9706 40.5579 55.3075 40.9789C56.1496 42.0736 56.5706 43.3578 56.5706 44.8315C56.5706 46.9578 55.8127 48.5894 54.297 49.7262C52.8022 50.842 50.8338 51.3999 48.3917 51.3999C45.9496 51.3999 43.8128 50.7894 41.9812 49.5683Z" fill="white"/>
<path d="M65.4211 51.021V31.1263H58.6948V28.2842H76L75.5579 31.1263H69.0211V51.021H65.4211Z" fill="white"/>
</g>
<defs>
<clipPath id="clip0_37_40">
<rect width="80" height="80" fill="white"/>
</clipPath>
</defs>
</svg>
