<svg width="44" height="27" viewBox="0 0 44 27" fill="none" xmlns="http://www.w3.org/2000/svg">
<path fill-rule="evenodd" clip-rule="evenodd" d="M21.9124 0.727539C16.0691 0.727539 12.4168 3.61655 10.9555 9.39459C13.147 6.50544 15.7035 5.42201 18.6252 6.1443C20.2921 6.55599 21.4833 7.752 22.8023 9.07615C24.9512 11.2324 27.4382 13.7275 32.869 13.7275C38.7124 13.7275 42.3643 10.8388 43.8249 5.06125C41.6341 7.95014 39.078 9.03281 36.1563 8.30926C34.4887 7.89757 33.2981 6.70156 31.9784 5.37817C29.8299 3.22193 27.3437 0.727539 21.9124 0.727539ZM10.9558 13.7275C5.11252 13.7275 1.46058 16.6166 0 22.3946C2.1915 19.5054 4.7477 18.422 7.66859 19.1443C9.33622 19.556 10.5267 20.752 11.8464 22.0762C13.995 24.2309 16.4812 26.7275 21.9124 26.7275C27.7558 26.7275 31.4077 23.8388 32.8683 18.0613C30.677 20.9501 28.1207 22.0337 25.1993 21.3119C23.5324 20.8995 22.3412 19.7035 21.0222 18.3801C18.8737 16.2234 16.3867 13.7275 10.9558 13.7275Z" fill="#06B6D4"/>
</svg>
