<svg width="32" height="32" viewBox="0 0 80 80" fill="none" xmlns="http://www.w3.org/2000/svg">
<g clip-path="url(#clip0_12_24)">
<path fill-rule="evenodd" clip-rule="evenodd" d="M40 19C30.4 19 24.3996 23.7464 21.9987 33.2391C25.5992 28.4925 29.7994 26.7126 34.5994 27.8992C37.3379 28.5756 39.295 30.5405 41.4619 32.716C44.9924 36.2584 49.0783 40.3577 58.0006 40.3577C67.6004 40.3577 73.6002 35.6118 76 26.1198C72.4006 30.866 68.2015 32.6447 63.4013 31.456C60.6615 30.7797 58.7056 28.8147 56.5375 26.6406C53.0076 23.098 48.923 19 40 19ZM21.9994 40.3577C12.3994 40.3577 6.39958 45.1041 4 54.5968C7.60042 49.8503 11.8 48.0703 16.5987 49.2569C19.3385 49.9333 21.2944 51.8982 23.4625 54.0737C26.9924 57.6137 31.077 61.7154 40 61.7154C49.6 61.7154 55.5998 56.9695 57.9994 47.4776C54.3994 52.2238 50.1996 54.0039 45.4 52.8181C42.6615 52.1405 40.7043 50.1756 38.5375 48.0014C35.0076 44.4582 30.9217 40.3577 21.9994 40.3577Z" fill="#06B6D4"/>
</g>
<defs>
<clipPath id="clip0_12_24">
<rect width="80" height="80" fill="white"/>
</clipPath>
</defs>
</svg>
