<svg width="26" height="26" viewBox="0 0 26 26" fill="none" xmlns="http://www.w3.org/2000/svg">
<g clip-path="url(#clip0_1010_196)">
<path d="M25.3713 10.5442C26.0109 13.0352 23.2635 15.9524 19.8274 15.1259C24.204 11.9427 22.203 7.8653 19.8899 5.90931C17.3818 3.78787 19.8099 3.10822 20.6188 3.87623C20.5993 2.3267 15.1436 2.67688 19.9156 7.65273C22.3673 10.2085 19.4751 15.862 16.0297 11.5629C16.0013 11.5239 15.9755 11.4831 15.9527 11.4407C16.5091 11.2097 16.966 10.5812 16.966 9.54616C16.9715 9.17975 16.8987 8.81639 16.7524 8.48037C17.1508 7.66919 17.5163 6.69998 17.5163 5.4863C17.5163 2.58538 15.6343 0 12.999 0C10.3635 0 8.4817 2.58548 8.4817 5.4862C8.4817 6.69988 8.84824 7.6702 9.24647 8.48138C9.09975 8.818 9.02696 9.18217 9.03299 9.54931C9.03299 10.5842 9.4888 11.2127 10.0463 11.4438C10.0231 11.4862 9.99702 11.527 9.96827 11.5659C6.52277 15.8651 3.62976 10.2106 6.08239 7.65578C10.8553 2.67993 5.39756 2.33086 5.37806 3.87928C6.1871 3.11228 8.61617 3.79194 6.10697 5.91236C3.79399 7.86327 1.79503 11.9417 6.16963 15.129C2.73438 15.9556 -0.0118665 13.0384 0.625641 10.5474C-0.489312 12.601 0.337204 16.4843 4.76309 17.2339C0.0517117 18.3152 1.46952 24.821 4.78676 23.7797C1.94179 23.6124 2.25806 20.3379 3.40896 19.3522C4.68205 18.2607 6.29181 19.0298 9.22707 18.5379C9.19518 21.181 11.7691 22.601 10.419 24.1145C8.98881 25.7163 7.03098 23.9862 7.33283 22.4121C5.96742 25.2379 9.85534 27.4866 11.5597 24.2049C12.8728 21.68 9.38317 17.1199 12.997 17.1199C16.6108 17.1199 13.1202 21.6749 14.4343 24.2049C16.1385 27.4906 20.0265 25.2378 18.661 22.4121C18.9598 23.9872 17.005 25.7163 15.5759 24.1145C14.232 22.5969 16.7988 21.1768 16.7709 18.5338C19.7051 19.0257 21.3149 18.2556 22.587 19.3481C23.7399 20.3338 24.0551 23.6083 21.2102 23.7757C24.5325 24.821 25.9493 18.3141 21.2359 17.2298C25.6588 16.4813 26.4863 12.5968 25.3713 10.5442Z" fill="url(#paint0_radial_1010_196)"/>
<path d="M3.46323 19.5495C4.7353 18.458 6.19628 19.4129 9.22995 18.5339C9.22995 18.5339 9.2721 17.7227 9.3112 17.1211C8.38719 17.8172 6.69729 17.7268 5.28669 17.9333C0.644063 18.6141 1.67482 24.1906 4.7867 23.7798C2.48387 23.402 2.31141 20.5362 3.46334 19.5495H3.46323Z" fill="url(#paint1_linear_1010_196)"/>
<path d="M9.48981 15.5532C10.0032 14.7594 10.0669 13.4801 9.02892 14.6435C5.52176 18.573 -0.563253 15.3622 0.628684 10.5454C-0.654558 12.2879 -0.0385812 16.8439 4.76614 17.231C5.9725 16.8305 8.45601 17.1406 9.48981 15.5532Z" fill="url(#paint2_linear_1010_196)"/>
<path d="M6.17069 15.126C6.17069 15.126 7.40264 14.9997 8.20143 14.0611C4.95407 15.2687 2.28988 10.0309 6.3534 6.49055C9.51352 3.74064 6.29693 2.65646 5.37505 3.87633C5.71488 3.54056 8.46834 3.73049 5.95924 5.85182C3.65021 7.80792 1.20367 11.8689 6.17069 15.126Z" fill="url(#paint3_radial_1010_196)"/>
<path d="M15.3346 24.6442C13.9825 23.1307 15.3346 21.764 15.583 19.3788C15.7474 17.7697 15.1467 15.9902 13 15.9902C10.8533 15.9902 10.2517 17.7728 10.4169 19.3788C10.6623 21.764 12.0165 23.1307 10.6654 24.6442C9.23628 26.245 6.56387 24.5764 7.33585 22.4078C5.43561 25.5632 10.2588 27.5275 11.963 24.2468C13.2752 21.7209 9.38609 17.2943 13 17.2943C16.6139 17.2943 12.7248 21.7209 14.0369 24.2468C15.7412 27.5274 20.5633 25.5632 18.6631 22.4078C19.4341 24.5764 16.7637 26.244 15.3346 24.6442Z" fill="url(#paint4_radial_1010_196)"/>
<path d="M20.7132 17.9343C19.3016 17.7289 17.6107 17.8172 16.6887 17.1211C16.7288 17.7227 16.77 18.5349 16.77 18.5349C19.8026 19.4129 21.2636 18.4569 22.5357 19.5495C23.6875 20.5352 23.515 23.402 21.2081 23.7758C24.3241 24.1906 25.3559 18.6141 20.7132 17.9343Z" fill="url(#paint5_linear_1010_196)"/>
<path d="M25.3714 10.5444C26.5633 15.3602 20.4783 18.5731 16.9701 14.6415C15.9321 13.4781 15.9928 14.7585 16.5102 15.5522C17.544 17.1396 20.0265 16.8295 21.2329 17.23C26.0386 16.8439 26.6546 12.2869 25.3714 10.5444Z" fill="url(#paint6_linear_1010_196)"/>
<path d="M17.7986 14.0611C18.5974 14.9996 19.8283 15.126 19.8283 15.126C24.7953 11.8729 22.3488 7.80688 20.0337 5.85181C17.5235 3.73047 20.2769 3.54055 20.6167 3.87631C19.6927 2.65645 16.4783 3.74073 19.6384 6.49053C23.709 10.031 21.0449 15.2686 17.7986 14.0611Z" fill="url(#paint7_radial_1010_196)"/>
<path opacity="0.3" d="M14.3346 3.60903C14.3346 4.40995 13 4.40995 13 3.60903C13 2.80811 14.3346 2.80912 14.3346 3.60903ZM12.2331 4.34221C12.2331 4.89359 11.3163 4.89359 11.3163 4.34221C11.3163 3.79072 12.2331 3.79072 12.2331 4.34221ZM12.8183 1.80599C12.8183 2.35839 11.9005 2.35839 11.9005 1.80599C11.9005 1.25349 12.8183 1.25867 12.8183 1.80599ZM10.9066 5.71919C10.9066 5.99534 10.4477 5.99534 10.4477 5.71919C10.4477 5.44294 10.9066 5.44294 10.9066 5.71919ZM10.9939 3.00839C10.9939 3.39026 10.3594 3.39026 10.3594 3.00839C10.3594 2.62641 10.9939 2.62743 10.9939 3.00839ZM12.8183 6.36706C12.8183 6.74995 12.1838 6.74995 12.1838 6.36706C12.1838 5.98407 12.8183 5.98712 12.8183 6.36706Z" fill="#4B1313"/>
<path d="M11.3697 9.5461C11.3697 11.0022 9.71887 11.0022 9.71887 9.5461C9.71887 8.0901 11.3697 8.0901 11.3697 9.5461Z" fill="#302D3B"/>
<path d="M10.5237 9.17577C10.5269 9.21099 10.5227 9.24647 10.5114 9.27996C10.5 9.31345 10.4819 9.34423 10.458 9.37031C10.4342 9.3964 10.4051 9.41724 10.3728 9.43149C10.3404 9.44575 10.3055 9.45311 10.2701 9.45311C10.2348 9.45311 10.1998 9.44575 10.1675 9.43149C10.1351 9.41724 10.1061 9.3964 10.0822 9.37031C10.0584 9.34423 10.0402 9.31345 10.0289 9.27996C10.0176 9.24647 10.0134 9.21099 10.0165 9.17577C10.0134 9.14056 10.0176 9.10508 10.0289 9.07159C10.0402 9.03809 10.0584 9.00732 10.0822 8.98123C10.1061 8.95514 10.1351 8.93431 10.1675 8.92005C10.1998 8.9058 10.2348 8.89844 10.2701 8.89844C10.3055 8.89844 10.3404 8.9058 10.3728 8.92005C10.4051 8.93431 10.4342 8.95514 10.458 8.98123C10.4819 9.00732 10.5 9.03809 10.5114 9.07159C10.5227 9.10508 10.5269 9.14056 10.5237 9.17577Z" fill="#6F828A"/>
<path d="M16.2853 9.5461C16.2853 11.0022 14.6344 11.0022 14.6344 9.5461C14.6344 8.0901 16.2853 8.0901 16.2853 9.5461Z" fill="#302D3B"/>
<path d="M15.4342 9.17577C15.4374 9.21099 15.4332 9.24647 15.4219 9.27996C15.4106 9.31345 15.3924 9.34423 15.3685 9.37031C15.3447 9.3964 15.3157 9.41724 15.2833 9.43149C15.251 9.44575 15.216 9.45311 15.1806 9.45311C15.1453 9.45311 15.1103 9.44575 15.078 9.43149C15.0456 9.41724 15.0166 9.3964 14.9927 9.37031C14.9689 9.34423 14.9507 9.31345 14.9394 9.27996C14.9281 9.24647 14.9239 9.21099 14.927 9.17577C14.9239 9.14056 14.9281 9.10508 14.9394 9.07159C14.9507 9.03809 14.9689 9.00732 14.9927 8.98123C15.0166 8.95514 15.0456 8.93431 15.078 8.92005C15.1103 8.9058 15.1453 8.89844 15.1806 8.89844C15.216 8.89844 15.251 8.9058 15.2833 8.92005C15.3157 8.93431 15.3447 8.95514 15.3685 8.98123C15.3924 9.00732 15.4106 9.03809 15.4219 9.07159C15.4332 9.10508 15.4374 9.14056 15.4342 9.17577Z" fill="#6F828A"/>
<path d="M12.233 12.444C12.233 13.2737 12.1643 13.9452 12.0852 13.9452C12.0062 13.9452 11.9425 13.2737 11.9435 12.4451C11.9445 11.6164 12.0123 10.9438 12.0924 10.9438C12.1724 10.9438 12.2351 11.6144 12.233 12.444Z" fill="#9E1C20"/>
<path d="M13.0267 14.2057C13.0869 14.2057 13.1356 13.4164 13.1356 12.4427C13.1356 11.469 13.0869 10.6797 13.0267 10.6797C12.9666 10.6797 12.9178 11.469 12.9178 12.4427C12.9178 13.4164 12.9666 14.2057 13.0267 14.2057Z" fill="#9E1C20"/>
<path d="M14.0554 12.4242C14.0554 13.2333 13.9897 13.8894 13.9117 13.8894C13.8336 13.8894 13.7751 13.2354 13.7761 12.4252C13.7772 11.615 13.8439 10.96 13.9198 10.96C13.9958 10.96 14.0585 11.615 14.0554 12.4242Z" fill="#9E1C20"/>
<path d="M20.2154 14.7366C20.045 14.5108 21.0367 13.7653 21.2092 13.9922C21.3816 14.2191 20.3848 14.9635 20.2154 14.7366Z" fill="#F389A4"/>
<path d="M20.4618 14.597C20.3848 14.4943 20.928 14.0836 21.0059 14.1863C21.084 14.2888 20.5398 14.7007 20.4618 14.597Z" fill="#E34E70"/>
<path d="M20.8027 13.7436C20.5973 13.5465 21.3519 12.7712 21.5552 12.9683C21.7585 13.1655 21.0018 13.9418 20.8027 13.7436Z" fill="#F389A4"/>
<path d="M20.9956 13.5926C20.9022 13.5022 21.3149 13.0792 21.4063 13.1686C21.4977 13.2579 21.088 13.683 20.9956 13.5926Z" fill="#E34E70"/>
<path d="M21.8715 12.3055C21.6003 12.2222 21.9156 11.1883 22.1866 11.2713C22.4577 11.3546 22.1373 12.3896 21.8714 12.3054L21.8715 12.3055Z" fill="#F7B3C5"/>
<path d="M21.9772 12.0816C21.8529 12.0436 22.0264 11.4789 22.1486 11.5159C22.2708 11.5529 22.0993 12.1196 21.9772 12.0816Z" fill="#E34E70"/>
<path d="M19.0985 14.6988C18.9783 14.442 20.0676 13.9328 20.1867 14.1904C20.3057 14.4482 19.2175 14.9554 19.0985 14.6988Z" fill="#F389A4"/>
<path d="M19.3653 14.6165C19.3109 14.4984 19.9053 14.2202 19.9608 14.3372C20.0162 14.4543 19.4136 14.7336 19.3653 14.6165Z" fill="#E34E70"/>
<path d="M21.8294 13.2344C21.5922 13.0814 22.1795 12.1727 22.4156 12.3278C22.6517 12.4828 22.0686 13.3884 21.8294 13.2344Z" fill="#F7B3C5"/>
<path d="M21.9946 13.0486C21.8858 12.9777 22.2071 12.4819 22.3149 12.5516C22.4227 12.6214 22.1024 13.1184 21.9946 13.0486Z" fill="#E34E70"/>
<path d="M17.4464 16.16C17.5563 15.8797 18.5758 16.2812 18.4732 16.5626C18.3704 16.844 17.3356 16.4415 17.4464 16.16Z" fill="#F389A4"/>
<path d="M17.6642 16.2839C17.7145 16.1555 18.274 16.3763 18.2248 16.5036C18.1755 16.6309 17.6128 16.4152 17.6642 16.2839Z" fill="#E34E70"/>
<path d="M18.8828 16.4893C18.9598 16.1391 20.0122 16.3721 19.9361 16.7223C19.8601 17.0724 18.8047 16.8393 18.8828 16.4893Z" fill="#F389A4"/>
<path d="M19.1117 16.5924C19.1477 16.4312 19.7277 16.5595 19.6887 16.7186C19.6497 16.8778 19.0758 16.7463 19.1117 16.5924Z" fill="#E34E70"/>
<path d="M16.5553 14.9399C16.814 14.6545 17.7031 15.4646 17.4455 15.7479C17.1877 16.0313 16.2966 15.2243 16.5553 14.9399Z" fill="#F389A4"/>
<path d="M16.7236 15.1546C16.8428 15.0242 17.3283 15.4677 17.2103 15.5971C17.0922 15.7265 16.6056 15.2891 16.7236 15.1546Z" fill="#E34E70"/>
<path d="M20.3006 16.8828C20.3006 16.6384 21.2122 16.6569 21.2071 16.9013C21.202 17.1456 20.2944 17.1282 20.3006 16.8828Z" fill="#F7B3C5"/>
<path d="M20.5038 16.9188C20.5038 16.8059 21.0018 16.8162 21.0007 16.927C20.9997 17.038 20.5018 17.0298 20.5038 16.9188Z" fill="#E34E70"/>
<path d="M16.9331 17.8447C17.0101 17.4946 18.0625 17.7277 17.9875 18.0777C17.9126 18.4279 16.8561 18.1948 16.9331 17.8447Z" fill="#F389A4"/>
<path d="M17.162 17.9422C17.198 17.781 17.7781 17.9083 17.7391 18.0685C17.7001 18.2287 17.1262 18.1004 17.1621 17.9422H17.162Z" fill="#E34E70"/>
<path d="M12.3594 16.7018C12.3594 16.3435 13.6345 16.326 13.6397 16.6854C13.6448 17.0448 12.3646 17.0612 12.3594 16.7019V16.7018Z" fill="#F389A4"/>
<path d="M12.6499 16.7442C12.6499 16.58 13.347 16.5708 13.3501 16.734C13.3531 16.8973 12.6519 16.9076 12.6499 16.7442Z" fill="#E34E70"/>
<path d="M14.0113 17.1315C14.2607 16.8737 15.038 17.6284 14.7844 17.8851C14.5308 18.1418 13.7618 17.3892 14.0113 17.1315Z" fill="#F389A4"/>
<path d="M14.1539 17.3345C14.2699 17.2165 14.6919 17.6292 14.579 17.7452C14.466 17.8613 14.041 17.4506 14.1539 17.3345Z" fill="#E34E70"/>
<path d="M15.2464 18.1506C15.6037 18.1701 15.5441 19.2493 15.1858 19.2298C14.8275 19.2103 14.8881 18.1321 15.2464 18.1506Z" fill="#F7B3C5"/>
<path d="M15.1868 18.3922C15.3511 18.4013 15.3182 18.9918 15.156 18.9826C14.9938 18.9734 15.0236 18.383 15.1868 18.3922Z" fill="#E34E70"/>
<path d="M14.6314 19.2402C14.9825 19.312 14.7669 20.3696 14.4158 20.3008C14.0647 20.2321 14.2803 19.1694 14.6314 19.2402Z" fill="#F7B3C5"/>
<path d="M14.54 19.4674C14.7012 19.5013 14.5832 20.0834 14.423 20.0485C14.2628 20.0137 14.3788 19.4386 14.54 19.4674Z" fill="#E34E70"/>
<path d="M14.9784 20.3667C15.3295 20.4386 15.1139 21.4962 14.7628 21.4264C14.4116 21.3566 14.6273 20.2959 14.9784 20.3667Z" fill="#F7B3C5"/>
<path d="M14.885 20.5966C15.0462 20.6295 14.9291 21.2126 14.7679 21.1767C14.6068 21.1407 14.7259 20.5638 14.885 20.5966Z" fill="#E34E70"/>
<path d="M14.1745 21.5412C14.5246 21.612 14.3101 22.6706 13.959 22.5998C13.6078 22.5289 13.8214 21.4693 14.1745 21.5411V21.5412Z" fill="#F7B3C5"/>
<path d="M14.0801 21.7714C14.2423 21.8053 14.1243 22.3874 13.9641 22.3515C13.8039 22.3155 13.9241 21.7386 14.0801 21.7714Z" fill="#E34E70"/>
<path d="M14.3736 22.7794C14.7309 22.7928 14.6909 23.8729 14.3326 23.8596C13.9743 23.8463 14.0143 22.7661 14.3736 22.7794Z" fill="#F7B3C5"/>
<path d="M14.3183 23.023C14.4836 23.0302 14.461 23.6206 14.2977 23.6145C14.1345 23.6083 14.156 23.0169 14.3183 23.023Z" fill="#E34E70"/>
<path d="M14.195 24.3098C14.4733 24.0839 15.043 24.7862 14.7637 25.0122C14.4845 25.2381 13.9168 24.5347 14.195 24.3098Z" fill="#F7B3C5"/>
<path d="M14.2884 24.4987C14.4168 24.3961 14.7279 24.78 14.5965 24.8828C14.4651 24.9854 14.1622 24.6015 14.2884 24.4987Z" fill="#E34E70"/>
<path d="M15.1335 24.9753C15.2772 24.7145 15.9343 25.0778 15.7906 25.3366C15.6468 25.5954 14.9897 25.2361 15.1335 24.9753Z" fill="#F389A4"/>
<path d="M15.2638 25.0901C15.3295 24.9699 15.6888 25.1681 15.6242 25.2861C15.5595 25.4043 15.1981 25.2092 15.2638 25.0901Z" fill="#E34E70"/>
<path d="M15.963 25.7696C15.9845 25.4995 16.6292 25.5519 16.6067 25.8219C16.584 26.0921 15.9404 26.0387 15.963 25.7696Z" fill="#F389A4"/>
<path d="M16.1057 25.8151C16.1158 25.6918 16.4681 25.7196 16.4588 25.8428C16.4497 25.966 16.0954 25.9363 16.1057 25.8151Z" fill="#E34E70"/>
<path d="M16.8644 25.6084C16.8068 25.3682 17.3776 25.2296 17.4372 25.4699C17.4968 25.7101 16.9228 25.8487 16.8644 25.6084Z" fill="#F389A4"/>
<path d="M17.0039 25.6062C16.9782 25.4974 17.2914 25.4214 17.3181 25.5292C17.3448 25.6371 17.0276 25.7161 17.0039 25.6062Z" fill="#E34E70"/>
<path d="M17.7287 25.6281C17.6343 25.3991 18.1795 25.1731 18.2729 25.4021C18.3663 25.6312 17.8253 25.852 17.7288 25.6281H17.7287Z" fill="#F389A4"/>
<path d="M17.8633 25.6002C17.8212 25.4976 18.119 25.3733 18.162 25.4759C18.2052 25.5786 17.9064 25.705 17.8633 25.6002Z" fill="#E34E70"/>
<path d="M18.2154 25.0179C18.0347 24.8495 18.4372 24.4172 18.6169 24.5856C18.7966 24.754 18.3961 25.1862 18.2154 25.0179Z" fill="#F389A4"/>
<path d="M18.3294 24.9409C18.2473 24.8629 18.466 24.6267 18.5481 24.7037C18.6303 24.7808 18.4116 25.0179 18.3294 24.9409Z" fill="#E34E70"/>
<path d="M18.8796 24.2461C18.6425 24.1782 18.8068 23.6104 19.044 23.6803C19.2811 23.75 19.1158 24.3159 18.8796 24.2461Z" fill="#F389A4"/>
<path d="M18.9464 24.127C18.8438 24.0951 18.9279 23.7851 19.0357 23.819C19.1435 23.8528 19.0572 24.1598 18.9463 24.127H18.9464Z" fill="#E34E70"/>
<path d="M18.2442 18.7043C18.275 18.348 19.3509 18.4404 19.3192 18.7987C19.2874 19.1571 18.2124 19.0627 18.2442 18.7043Z" fill="#F389A4"/>
<path d="M18.4834 18.7711C18.4988 18.6069 19.0861 18.6592 19.0718 18.8215C19.0573 18.9837 18.4691 18.9334 18.4834 18.7711Z" fill="#E34E70"/>
<path d="M19.5357 18.3287C19.5428 17.9765 20.6219 17.9981 20.6137 18.3512C20.6056 18.7045 19.5275 18.6819 19.5357 18.3287Z" fill="#F7B3C5"/>
<path d="M19.776 18.3786C19.776 18.2164 20.3694 18.2297 20.3664 18.39C20.3633 18.5501 19.776 18.5429 19.776 18.3786Z" fill="#E34E70"/>
<path d="M20.7585 18.7752C20.8355 18.4364 21.776 18.651 21.6959 18.9918C21.6158 19.3328 20.6795 19.1161 20.7585 18.7752Z" fill="#F7B3C5"/>
<path d="M20.9608 18.8677C20.9966 18.7126 21.51 18.8308 21.4741 18.9847C21.4381 19.1388 20.9248 19.0237 20.9608 18.8677Z" fill="#E34E70"/>
<path d="M22.0645 18.8007C22.2235 18.4927 23.009 18.8951 22.8477 19.2114C22.6866 19.5277 21.9052 19.1118 22.0645 18.8007Z" fill="#FACFDA"/>
<path d="M22.2215 18.9322C22.2954 18.7894 22.7225 19.0122 22.6517 19.1519C22.5808 19.2915 22.1486 19.0739 22.2215 18.9322Z" fill="#E34E70"/>
<path d="M22.8919 19.6901C23.1517 19.5731 23.4495 20.2325 23.1887 20.3495C22.9279 20.4665 22.6311 19.8083 22.8919 19.6902V19.6901Z" fill="#FACFDA"/>
<path d="M22.9257 19.8552C23.0449 19.8007 23.2071 20.1632 23.0901 20.2145C22.9731 20.2659 22.8067 19.9075 22.9258 19.8552H22.9257Z" fill="#E34E70"/>
<path d="M23.6198 20.4858C23.9041 20.4858 23.9021 21.2098 23.6198 21.2046C23.3374 21.1995 23.3344 20.4848 23.6198 20.4858Z" fill="#FACFDA"/>
<path d="M23.5818 20.6499C23.7142 20.6499 23.7122 21.0452 23.5818 21.0452C23.4514 21.0452 23.4524 20.6489 23.5818 20.6499Z" fill="#E34E70"/>
<path d="M23.3417 21.4182C23.5953 21.4644 23.4761 22.1124 23.2215 22.0641C22.9669 22.0158 23.086 21.374 23.3417 21.4182Z" fill="#FACFDA"/>
<path d="M23.281 21.562C23.3991 21.5845 23.3334 21.9378 23.2174 21.9162C23.1013 21.8946 23.164 21.5404 23.281 21.562Z" fill="#E34E70"/>
<path d="M23.3693 22.3555C23.5746 22.4694 23.283 22.989 23.0777 22.8689C22.8724 22.7487 23.164 22.2394 23.3692 22.3555H23.3693Z" fill="#FACFDA"/>
<path d="M23.2809 22.4571C23.3744 22.5105 23.2152 22.7939 23.1218 22.7405C23.0283 22.6871 23.1865 22.4047 23.2809 22.4571Z" fill="#E34E70"/>
<path d="M22.7595 23.0456C22.9022 23.1843 22.5491 23.5478 22.4064 23.4071C22.2637 23.2664 22.6168 22.905 22.7595 23.0456Z" fill="#FACFDA"/>
<path d="M22.6619 23.1091C22.7277 23.1737 22.5336 23.371 22.469 23.3072C22.4042 23.2436 22.5962 23.0455 22.6619 23.1091Z" fill="#E34E70"/>
<path d="M21.3889 16.7349C21.3077 16.393 22.3581 16.1435 22.4401 16.4875C22.5223 16.8314 21.471 17.0799 21.3889 16.7349Z" fill="#F7B3C5"/>
<path d="M21.6383 16.7238C21.6013 16.5657 22.1743 16.4301 22.2122 16.5862C22.2502 16.7423 21.6742 16.8799 21.6383 16.7238Z" fill="#E34E70"/>
<path d="M22.7348 16.8273C22.6322 16.5347 23.6506 16.1773 23.7533 16.471C23.8559 16.7646 22.8365 17.122 22.7348 16.8273Z" fill="#FACFDA"/>
<path d="M22.9782 16.784C22.9309 16.6484 23.4916 16.4543 23.5357 16.5878C23.5798 16.7214 23.0254 16.9186 22.9782 16.784Z" fill="#E34E70"/>
<path d="M23.6536 16.059C23.4483 15.828 24.2449 15.102 24.4545 15.3321C24.6639 15.562 23.862 16.289 23.6536 16.059Z" fill="#FACFDA"/>
<path d="M23.861 15.9238C23.7656 15.8212 24.2039 15.4216 24.2984 15.5253C24.3928 15.6291 23.9565 16.0285 23.861 15.9238Z" fill="#E34E70"/>
<path d="M24.9606 15.315C24.7009 15.1424 25.3015 14.243 25.5602 14.4154C25.8189 14.588 25.2173 15.4874 24.9606 15.315Z" fill="#FACFDA"/>
<path d="M25.128 15.1328C25.0099 15.0528 25.3384 14.563 25.4554 14.64C25.5725 14.717 25.246 15.2108 25.128 15.1328Z" fill="#E34E70"/>
<path d="M25.3292 14.0322C25.0377 13.9225 25.4217 12.912 25.7111 13.0209C26.0007 13.1298 25.6187 14.1432 25.3292 14.0322Z" fill="#FACFDA"/>
<path d="M25.4524 13.8199C25.3189 13.7685 25.5294 13.2161 25.6577 13.2664C25.786 13.3168 25.5848 13.8682 25.4524 13.8199Z" fill="#E34E70"/>
<path d="M25.8662 12.6371C25.6383 12.6628 25.551 11.868 25.7789 11.8424C26.0069 11.8167 26.0951 12.6114 25.8662 12.6371Z" fill="#FACFDA"/>
<path d="M25.8754 12.454C25.7727 12.4643 25.7245 12.03 25.8271 12.0197C25.9297 12.0095 25.9801 12.4417 25.8754 12.454Z" fill="#E34E70"/>
<path d="M22.5757 11.4805C22.2954 11.4467 22.4268 10.3726 22.7072 10.4086C22.9875 10.4446 22.8559 11.5154 22.5757 11.4805Z" fill="#F7B3C5"/>
<path d="M22.6413 11.2424C22.512 11.2271 22.585 10.6397 22.7122 10.6551C22.8396 10.6705 22.7697 11.2579 22.6414 11.2424H22.6413Z" fill="#E34E70"/>
<path d="M22.1559 10.6215C21.8746 10.645 21.7872 9.56694 22.0706 9.54429C22.3539 9.52175 22.4393 10.5988 22.1559 10.6215Z" fill="#F7B3C5"/>
<path d="M22.1721 10.3737C22.0428 10.384 21.9966 9.79561 22.125 9.78434C22.2533 9.77307 22.3016 10.3645 22.1722 10.3737H22.1721Z" fill="#E34E70"/>
<path d="M22.4586 9.28004C22.202 9.39816 21.7534 8.41544 22.011 8.29742C22.2687 8.17931 22.7174 9.16294 22.4586 9.28004Z" fill="#F7B3C5"/>
<path d="M22.3898 9.04334C22.2728 9.09666 22.0274 8.56071 22.1434 8.50628C22.2594 8.45184 22.5078 8.99408 22.3898 9.04334Z" fill="#E34E70"/>
<path d="M21.6043 8.48982C21.3734 8.61921 20.8858 7.74029 21.1179 7.61192C21.3498 7.48354 21.8374 8.36043 21.6043 8.48982Z" fill="#F7B3C5"/>
<path d="M21.5213 8.27512C21.4187 8.33474 21.1496 7.85516 21.2554 7.79565C21.3611 7.73603 21.6302 8.21561 21.5213 8.27512Z" fill="#E34E70"/>
<path d="M21.4463 7.40635C21.2493 7.56042 20.6825 6.83344 20.8816 6.67835C21.0808 6.52327 21.6465 7.24822 21.4463 7.40635Z" fill="#F7B3C5"/>
<path d="M21.3436 7.22166C21.2532 7.29255 20.9433 6.89514 21.0357 6.82435C21.1281 6.75346 21.435 7.15087 21.3436 7.22166Z" fill="#E34E70"/>
<path d="M20.4946 6.96381C20.3046 7.12905 19.7031 6.43081 19.894 6.26658C20.085 6.10225 20.6824 6.79948 20.4946 6.96381Z" fill="#F7B3C5"/>
<path d="M20.3786 6.78515C20.2923 6.86122 19.968 6.47711 20.0501 6.40429C20.1322 6.33137 20.4669 6.7102 20.3786 6.78515Z" fill="#E34E70"/>
<path d="M20.0624 6.03364C19.8909 6.18151 19.3992 5.61053 19.5717 5.46275C19.7441 5.31488 20.2349 5.88475 20.0624 6.03354V6.03364Z" fill="#F7B3C5"/>
<path d="M19.973 5.8845C19.894 5.95234 19.625 5.64024 19.7041 5.57656C19.7831 5.51288 20.051 5.81787 19.973 5.8846V5.8845Z" fill="#E34E70"/>
<path d="M19.238 5.84965C19.0451 5.96675 18.6538 5.32295 18.849 5.20483C19.044 5.08671 19.4341 5.73042 19.238 5.84965Z" fill="#F389A4"/>
<path d="M19.1744 5.68847C19.0871 5.74189 18.8726 5.39069 18.9608 5.33625C19.0492 5.28181 19.2627 5.63505 19.1744 5.68847Z" fill="#E34E70"/>
<path d="M19.1599 5.07653C18.9433 5.14021 18.776 4.58162 18.9947 4.51692C19.2134 4.45223 19.3756 5.01082 19.1599 5.07653Z" fill="#F389A4"/>
<path d="M19.1455 4.9412C19.0429 4.97095 18.9556 4.66495 19.0552 4.63316C19.1548 4.60127 19.2451 4.91144 19.1456 4.9412H19.1455Z" fill="#E34E70"/>
<path d="M18.5594 4.45409C18.3459 4.37914 18.5389 3.82867 18.7535 3.90464C18.9681 3.98071 18.7739 4.53108 18.5594 4.45409Z" fill="#F389A4"/>
<path d="M18.6302 4.33924C18.5276 4.30644 18.6383 4.00449 18.7327 4.03943C18.8272 4.07437 18.7277 4.37316 18.6302 4.33924Z" fill="#E34E70"/>
<path d="M19.1024 3.8177C19.0665 3.59376 19.6414 3.50347 19.6773 3.72833C19.7133 3.95319 19.1374 4.0446 19.1024 3.8177Z" fill="#F389A4"/>
<path d="M19.237 3.82566C19.2205 3.72308 19.5357 3.67473 19.5511 3.7764C19.5665 3.87796 19.2534 3.92834 19.237 3.82566Z" fill="#E34E70"/>
<path d="M5.7856 14.7366C5.95501 14.5108 4.96427 13.7653 4.7908 13.9922C4.61733 14.2191 5.61518 14.9635 5.7856 14.7366Z" fill="#F389A4"/>
<path d="M5.53817 14.597C5.61515 14.4943 5.07199 14.0836 4.9941 14.1863C4.91599 14.2888 5.46017 14.7007 5.53817 14.597Z" fill="#E34E70"/>
<path d="M5.19732 13.7436C5.40268 13.5465 4.64807 12.7712 4.44474 12.9683C4.24152 13.1655 4.99816 13.9418 5.19732 13.7436Z" fill="#F389A4"/>
<path d="M5.00437 13.5926C5.09781 13.5022 4.68506 13.0792 4.59365 13.1686C4.50225 13.2579 4.91195 13.683 5.00437 13.5926Z" fill="#E34E70"/>
<path d="M4.12848 12.3055C4.39965 12.2222 4.0844 11.1883 3.81344 11.2713C3.54226 11.3546 3.86269 12.3896 4.12858 12.3054L4.12848 12.3055Z" fill="#F7B3C5"/>
<path d="M4.02286 12.0816C4.14707 12.0436 3.9736 11.4789 3.85142 11.5159C3.72924 11.5529 3.90068 12.1196 4.02286 12.0816Z" fill="#E34E70"/>
<path d="M6.90264 14.6988C7.02167 14.442 5.93241 13.9328 5.81328 14.1904C5.69425 14.4482 6.78249 14.9554 6.90264 14.6988Z" fill="#F389A4"/>
<path d="M6.63986 14.6165C6.6943 14.4984 6.09985 14.2202 6.0444 14.3372C5.98895 14.4543 6.58644 14.7336 6.63986 14.6165Z" fill="#E34E70"/>
<path d="M4.17072 13.2344C4.40787 13.0814 3.82063 12.1727 3.5845 12.3278C3.34837 12.4828 3.93154 13.3884 4.17072 13.2344Z" fill="#F7B3C5"/>
<path d="M4.00539 13.0486C4.11416 12.9777 3.79282 12.4819 3.68506 12.5516C3.5773 12.6214 3.89753 13.1184 4.00539 13.0486Z" fill="#E34E70"/>
<path d="M8.60173 16.1294C8.48066 15.8212 7.32559 16.2731 7.44676 16.5842C7.56792 16.8953 8.72391 16.4395 8.60173 16.1294Z" fill="#F389A4"/>
<path d="M8.35636 16.2716C8.29989 16.1289 7.66858 16.3743 7.72292 16.5191C7.77735 16.6639 8.41182 16.4124 8.35636 16.2716Z" fill="#E34E70"/>
<path d="M7.11717 16.4893C7.04019 16.1391 5.9878 16.3721 6.06387 16.7223C6.13984 17.0724 7.19527 16.8393 7.11717 16.4893Z" fill="#F389A4"/>
<path d="M6.88831 16.5924C6.85235 16.4312 6.27233 16.5595 6.31133 16.7186C6.35033 16.8778 6.92426 16.7463 6.88831 16.5924Z" fill="#E34E70"/>
<path d="M9.44472 14.9399C9.18594 14.6545 8.29686 15.4646 8.55452 15.7479C8.81229 16.0313 9.7034 15.2243 9.44472 14.9399Z" fill="#F389A4"/>
<path d="M9.27627 15.1546C9.15713 15.0242 8.67156 15.4677 8.78958 15.5971C8.9077 15.7265 9.39428 15.2891 9.27627 15.1546Z" fill="#E34E70"/>
<path d="M5.85131 16.855C5.8442 16.5922 4.91297 16.6055 4.9212 16.8695C4.92932 17.1333 5.85852 17.1199 5.85131 16.855Z" fill="#F7B3C5"/>
<path d="M5.64196 16.8918C5.64196 16.7706 5.12866 16.7799 5.12866 16.8989C5.12866 17.0181 5.64501 17.013 5.64196 16.8918Z" fill="#E34E70"/>
<path d="M9.06691 17.8447C8.98992 17.4946 7.93753 17.7277 8.01249 18.0777C8.08744 18.4279 9.14389 18.1948 9.06691 17.8447Z" fill="#F389A4"/>
<path d="M8.83799 17.9422C8.80204 17.781 8.22191 17.9083 8.26091 18.0685C8.29991 18.2287 8.87395 18.1004 8.83799 17.9422Z" fill="#E34E70"/>
<path d="M12.0442 17.1977C11.8389 16.904 10.9539 17.5233 11.1592 17.8138C11.3646 18.1044 12.2496 17.4924 12.0442 17.1977Z" fill="#F389A4"/>
<path d="M11.8706 17.3757C11.7751 17.2411 11.2927 17.581 11.3851 17.7135C11.4774 17.8459 11.963 17.5091 11.8706 17.3757Z" fill="#E34E70"/>
<path d="M10.7536 18.1506C10.3963 18.1701 10.4559 19.2493 10.8142 19.2298C11.1725 19.2103 11.1119 18.1321 10.7536 18.1506Z" fill="#F7B3C5"/>
<path d="M10.8133 18.3922C10.649 18.4013 10.6819 18.9918 10.8441 18.9826C11.0063 18.9734 10.9765 18.383 10.8133 18.3922Z" fill="#E34E70"/>
<path d="M11.3685 19.2402C11.0174 19.312 11.2331 20.3696 11.5842 20.3008C11.9353 20.2321 11.7196 19.1694 11.3685 19.2402Z" fill="#F7B3C5"/>
<path d="M11.46 19.4674C11.2988 19.5013 11.4168 20.0834 11.577 20.0485C11.7371 20.0137 11.6211 19.4386 11.46 19.4674Z" fill="#E34E70"/>
<path d="M11.0216 20.3667C10.6705 20.4386 10.8861 21.4962 11.2372 21.4264C11.5884 21.3566 11.3728 20.2959 11.0217 20.3667H11.0216Z" fill="#F7B3C5"/>
<path d="M11.1149 20.5966C10.9538 20.6295 11.0709 21.2126 11.232 21.1767C11.3932 21.1407 11.2741 20.5638 11.1149 20.5966Z" fill="#E34E70"/>
<path d="M11.8255 21.5412C11.4754 21.612 11.6899 22.6706 12.041 22.5998C12.3922 22.5289 12.1787 21.4693 11.8255 21.5411V21.5412Z" fill="#F7B3C5"/>
<path d="M11.92 21.7714C11.7578 21.8053 11.8758 22.3874 12.036 22.3515C12.1962 22.3155 12.076 21.7386 11.92 21.7714Z" fill="#E34E70"/>
<path d="M11.6263 22.7794C11.2701 22.7928 11.3091 23.8729 11.6674 23.8596C12.0257 23.8463 11.9857 22.7661 11.6263 22.7794Z" fill="#F7B3C5"/>
<path d="M11.6817 23.023C11.5164 23.0302 11.539 23.6206 11.7023 23.6145C11.8655 23.6083 11.844 23.0169 11.6817 23.023Z" fill="#E34E70"/>
<path d="M11.805 24.3098C11.5267 24.0839 10.9569 24.7862 11.2362 25.0122C11.5154 25.2381 12.0831 24.5347 11.805 24.3098Z" fill="#F7B3C5"/>
<path d="M11.7116 24.4987C11.5832 24.3961 11.2721 24.78 11.4036 24.8828C11.535 24.9854 11.8378 24.6015 11.7116 24.4987Z" fill="#E34E70"/>
<path d="M10.8666 24.9753C10.7229 24.7145 10.0658 25.0778 10.2095 25.3366C10.3533 25.5954 11.0103 25.2361 10.8666 24.9753Z" fill="#F389A4"/>
<path d="M10.7413 25.0901C10.6757 24.9699 10.3164 25.1681 10.381 25.2861C10.4457 25.4043 10.8018 25.2092 10.7413 25.0901Z" fill="#E34E70"/>
<path d="M10.037 25.7696C10.0154 25.4995 9.37073 25.5519 9.39328 25.8219C9.41593 26.0921 10.0595 26.0387 10.037 25.7696Z" fill="#F389A4"/>
<path d="M9.89433 25.8151C9.88417 25.6918 9.53195 25.7196 9.54119 25.8428C9.55033 25.966 9.90458 25.9363 9.89433 25.8151Z" fill="#E34E70"/>
<path d="M9.13561 25.6084C9.19319 25.3682 8.62241 25.2296 8.56279 25.4699C8.50328 25.7101 9.07721 25.8487 9.13561 25.6084Z" fill="#F389A4"/>
<path d="M8.99603 25.6062C9.02172 25.4974 8.7086 25.4214 8.68189 25.5292C8.65518 25.6371 8.97236 25.7161 8.99603 25.6062Z" fill="#E34E70"/>
<path d="M8.27128 25.6281C8.36573 25.3991 7.82054 25.1731 7.72711 25.4021C7.63367 25.6312 8.17479 25.852 8.27128 25.6281Z" fill="#F389A4"/>
<path d="M8.13669 25.6002C8.17883 25.4976 7.88105 25.3733 7.83799 25.4759C7.79483 25.5786 8.09362 25.705 8.13669 25.6002Z" fill="#E34E70"/>
<path d="M7.78456 25.0179C7.96534 24.8495 7.56275 24.4172 7.38308 24.5856C7.20342 24.754 7.60388 25.1862 7.78456 25.0179Z" fill="#F389A4"/>
<path d="M7.67066 24.9409C7.75282 24.8629 7.53405 24.6267 7.45199 24.7037C7.36983 24.7808 7.58849 25.0179 7.67066 24.9409Z" fill="#E34E70"/>
<path d="M7.12038 24.2461C7.35753 24.1782 7.1932 23.6104 6.95605 23.6803C6.7189 23.75 6.88425 24.3159 7.12038 24.2461Z" fill="#F389A4"/>
<path d="M7.05348 24.127C7.15616 24.0951 7.07206 23.7851 6.9642 23.819C6.85645 23.8528 6.94257 24.1598 7.05348 24.127Z" fill="#E34E70"/>
<path d="M7.7558 18.7043C7.72503 18.348 6.64908 18.4404 6.68087 18.7987C6.71266 19.1571 7.78759 19.0627 7.7558 18.7043Z" fill="#F389A4"/>
<path d="M7.51659 18.7711C7.50115 18.6069 6.91392 18.6592 6.92824 18.8215C6.94266 18.9837 7.53091 18.9334 7.51659 18.7711Z" fill="#E34E70"/>
<path d="M6.46426 18.3287C6.45715 17.9765 5.37805 17.9981 5.38628 18.3512C5.3944 18.7045 6.47249 18.6819 6.46426 18.3287Z" fill="#F7B3C5"/>
<path d="M6.22406 18.3786C6.22406 18.2164 5.63063 18.2297 5.63368 18.39C5.63673 18.5501 6.22406 18.5429 6.22406 18.3786Z" fill="#E34E70"/>
<path d="M5.24157 18.7752C5.16459 18.4364 4.22514 18.651 4.30415 18.9918C4.38327 19.3328 5.32059 19.1161 5.24157 18.7752Z" fill="#F7B3C5"/>
<path d="M5.03927 18.8677C5.00342 18.7126 4.49002 18.8308 4.52597 18.9847C4.56193 19.1388 5.07522 19.0237 5.03927 18.8677Z" fill="#E34E70"/>
<path d="M3.93556 18.8007C3.77652 18.4927 2.99103 18.8951 3.15231 19.2114C3.31349 19.5277 4.09481 19.1118 3.93556 18.8007Z" fill="#FACFDA"/>
<path d="M3.77856 18.9322C3.70462 18.7894 3.27755 19.0122 3.34834 19.1519C3.41923 19.2915 3.85148 19.0739 3.77856 18.9322Z" fill="#E34E70"/>
<path d="M3.10806 19.6901C2.84827 19.5731 2.55049 20.2325 2.8113 20.3495C3.07211 20.4665 3.36888 19.8083 3.10806 19.6902V19.6901Z" fill="#FACFDA"/>
<path d="M3.07429 19.8552C2.95516 19.8007 2.79297 20.1632 2.90997 20.2145C3.02697 20.2659 3.19332 19.9075 3.07419 19.8552H3.07429Z" fill="#E34E70"/>
<path d="M2.38024 20.4858C2.09587 20.4858 2.0979 21.2098 2.38024 21.2046C2.66259 21.1995 2.66564 20.4848 2.38024 20.4858Z" fill="#FACFDA"/>
<path d="M2.41815 20.6499C2.28571 20.6499 2.28774 21.0452 2.41815 21.0452C2.54855 21.0452 2.54855 20.6489 2.41815 20.6499Z" fill="#E34E70"/>
<path d="M2.65841 21.4182C2.40481 21.4644 2.52394 22.1124 2.77856 22.0641C3.03318 22.0158 2.91404 21.374 2.65841 21.4182Z" fill="#FACFDA"/>
<path d="M2.71899 21.562C2.60088 21.5845 2.66659 21.9378 2.78257 21.9162C2.89866 21.8946 2.83599 21.5404 2.71899 21.562Z" fill="#E34E70"/>
<path d="M2.63066 22.3555C2.4254 22.4694 2.71699 22.989 2.92225 22.8689C3.12761 22.7487 2.83592 22.2394 2.63066 22.3555Z" fill="#FACFDA"/>
<path d="M2.71908 22.4571C2.62564 22.5105 2.78479 22.7939 2.87823 22.7405C2.97166 22.6871 2.81353 22.4047 2.71908 22.4571Z" fill="#E34E70"/>
<path d="M3.24057 23.0456C3.09787 23.1843 3.44593 23.5478 3.5937 23.4071C3.74157 23.2664 3.38326 22.905 3.24057 23.0456Z" fill="#FACFDA"/>
<path d="M3.3381 23.1091C3.27239 23.1737 3.46647 23.371 3.53107 23.3072C3.59586 23.2436 3.40381 23.0455 3.3381 23.1091Z" fill="#E34E70"/>
<path d="M4.61114 16.7349C4.69229 16.393 3.64193 16.1435 3.55987 16.4875C3.47771 16.8314 4.52898 17.0799 4.61114 16.7349Z" fill="#F7B3C5"/>
<path d="M4.36174 16.7238C4.39871 16.5657 3.82579 16.4301 3.78781 16.5862C3.74982 16.7423 4.32589 16.8799 4.36174 16.7238Z" fill="#E34E70"/>
<path d="M3.26523 16.8273C3.3678 16.5347 2.34944 16.1773 2.24676 16.471C2.14408 16.7646 3.16356 17.122 3.26523 16.8273Z" fill="#FACFDA"/>
<path d="M3.02186 16.784C3.06909 16.6484 2.50846 16.4543 2.46428 16.5878C2.42021 16.7214 2.97464 16.9186 3.02186 16.784Z" fill="#E34E70"/>
<path d="M2.34626 16.059C2.55162 15.828 1.75496 15.102 1.54544 15.3321C1.33602 15.562 2.13785 16.289 2.34626 16.059Z" fill="#FACFDA"/>
<path d="M2.13886 15.9238C2.23433 15.8212 1.79599 15.4216 1.70153 15.5253C1.60708 15.6291 2.04339 16.0285 2.13886 15.9238Z" fill="#E34E70"/>
<path d="M1.03935 15.315C1.29904 15.1424 0.698505 14.243 0.439723 14.4154C0.181044 14.588 0.7827 15.4874 1.03935 15.315Z" fill="#FACFDA"/>
<path d="M0.871987 15.1328C0.990104 15.0528 0.666628 14.563 0.54455 14.64C0.42237 14.717 0.753972 15.2108 0.871987 15.1328Z" fill="#E34E70"/>
<path d="M0.670862 14.0322C0.962346 13.9225 0.57844 12.912 0.288987 13.0209C-0.000567701 13.1298 0.381409 14.1432 0.670862 14.0322Z" fill="#FACFDA"/>
<path d="M0.54759 13.8199C0.681043 13.7685 0.470605 13.2161 0.34223 13.2664C0.213957 13.3168 0.415152 13.8682 0.54759 13.8199Z" fill="#E34E70"/>
<path d="M0.133854 12.6371C0.361761 12.6628 0.449003 11.868 0.221198 11.8424C-0.00680974 11.8167 -0.0950676 12.6114 0.133854 12.6371Z" fill="#FACFDA"/>
<path d="M0.124624 12.454C0.227304 12.4643 0.275546 12.03 0.172866 12.0197C0.0702879 12.0095 0.0199129 12.4417 0.124624 12.454Z" fill="#E34E70"/>
<path d="M3.42429 11.4805C3.7046 11.4467 3.57318 10.3726 3.29286 10.4086C3.01255 10.4446 3.14407 11.5154 3.42429 11.4805Z" fill="#F7B3C5"/>
<path d="M3.35863 11.2424C3.48791 11.2271 3.41499 10.6397 3.28774 10.6551C3.16038 10.6705 3.23035 11.2579 3.35863 11.2424Z" fill="#E34E70"/>
<path d="M3.84416 10.6215C4.12549 10.645 4.21284 9.56694 3.92948 9.54429C3.64612 9.52175 3.56081 10.5988 3.84416 10.6215Z" fill="#F7B3C5"/>
<path d="M3.82795 10.3737C3.95724 10.384 4.00345 9.79561 3.87507 9.78434C3.7468 9.77307 3.69856 10.3645 3.82795 10.3737Z" fill="#E34E70"/>
<path d="M3.54138 9.28004C3.79803 9.39816 4.24663 8.41544 3.98896 8.29742C3.7313 8.17931 3.2826 9.16294 3.54138 9.28004Z" fill="#F7B3C5"/>
<path d="M3.61014 9.04334C3.72714 9.09666 3.97251 8.56071 3.85653 8.50628C3.74054 8.45184 3.49212 8.99408 3.61014 9.04334Z" fill="#E34E70"/>
<path d="M4.39565 8.48982C4.62661 8.61921 5.11421 7.74029 4.88214 7.61192C4.65017 7.48354 4.16257 8.36043 4.39565 8.48982Z" fill="#F7B3C5"/>
<path d="M4.47871 8.27512C4.58129 8.33474 4.85043 7.85516 4.7446 7.79565C4.63887 7.73603 4.36983 8.21561 4.47871 8.27512Z" fill="#E34E70"/>
<path d="M4.5537 7.40635C4.75073 7.56042 5.31745 6.83344 5.11839 6.67835C4.91922 6.52327 4.35352 7.24822 4.5537 7.40635Z" fill="#F7B3C5"/>
<path d="M4.65633 7.22166C4.74672 7.29255 5.05669 6.89514 4.96427 6.82435C4.87185 6.75346 4.56493 7.15087 4.65633 7.22166Z" fill="#E34E70"/>
<path d="M5.50546 6.96381C5.69538 7.12905 6.29693 6.43081 6.10599 6.26658C5.91506 6.10225 5.31756 6.79948 5.50546 6.96381Z" fill="#F7B3C5"/>
<path d="M5.62139 6.78515C5.70771 6.86122 6.032 6.47711 5.94994 6.40429C5.86778 6.33137 5.53313 6.7102 5.62139 6.78515Z" fill="#E34E70"/>
<path d="M5.93755 6.03364C6.10908 6.18151 6.60075 5.61053 6.4283 5.46275C6.25584 5.31488 5.76509 5.88475 5.93755 6.03354V6.03364Z" fill="#F7B3C5"/>
<path d="M6.0269 5.8845C6.10591 5.95234 6.37495 5.64024 6.29583 5.57656C6.21682 5.51288 5.9489 5.81787 6.0269 5.8846V5.8845Z" fill="#E34E70"/>
<path d="M6.76204 5.84965C6.95501 5.96675 7.34622 5.32295 7.15102 5.20483C6.95602 5.08671 6.56592 5.73042 6.76204 5.84965Z" fill="#F389A4"/>
<path d="M6.82565 5.68847C6.91299 5.74189 7.12749 5.39069 7.03923 5.33625C6.95087 5.28181 6.73739 5.63505 6.82565 5.68847Z" fill="#E34E70"/>
<path d="M6.83999 5.07653C7.05662 5.14021 7.22389 4.58162 7.00523 4.51692C6.78656 4.45223 6.62437 5.01082 6.83999 5.07653Z" fill="#F389A4"/>
<path d="M6.85446 4.9412C6.95704 4.97095 7.04438 4.66495 6.94475 4.63316C6.84522 4.60127 6.75493 4.91144 6.85446 4.9412Z" fill="#E34E70"/>
<path d="M7.4407 4.45409C7.65418 4.37914 7.46223 3.82867 7.24661 3.90464C7.03099 3.98071 7.2262 4.53108 7.4407 4.45409Z" fill="#F389A4"/>
<path d="M7.36973 4.33924C7.47231 4.30644 7.36161 4.00449 7.26715 4.03943C7.1727 4.07437 7.27223 4.37316 7.36973 4.33924Z" fill="#E34E70"/>
<path d="M6.89751 3.8177C6.93347 3.59376 6.35852 3.50347 6.32267 3.72833C6.28661 3.95319 6.86257 4.0446 6.89751 3.8177Z" fill="#F389A4"/>
<path d="M6.76305 3.82566C6.7795 3.72308 6.46425 3.67473 6.44892 3.7764C6.43348 3.87796 6.7466 3.92834 6.76305 3.82566Z" fill="#E34E70"/>
</g>
<defs>
<radialGradient id="paint0_radial_1010_196" cx="0" cy="0" r="1" gradientUnits="userSpaceOnUse" gradientTransform="translate(13.07 12.7808) scale(12.9052 12.9052)">
<stop stop-color="#E33332"/>
<stop offset="0.2" stop-color="#E03330"/>
<stop offset="0.38" stop-color="#D52E2C"/>
<stop offset="0.54" stop-color="#C32827"/>
<stop offset="0.71" stop-color="#A91F23"/>
<stop offset="0.86" stop-color="#89181A"/>
<stop offset="1" stop-color="#640E0E"/>
</radialGradient>
<linearGradient id="paint1_linear_1010_196" x1="2.12558" y1="20.4592" x2="9.3112" y2="20.4592" gradientUnits="userSpaceOnUse">
<stop stop-color="#F7B3C5"/>
<stop offset="0.19" stop-color="#F7B0C2"/>
<stop offset="0.38" stop-color="#F6A4B6"/>
<stop offset="0.58" stop-color="#F390A5"/>
<stop offset="0.79" stop-color="#E7728B"/>
<stop offset="0.99" stop-color="#DC4D6C"/>
<stop offset="1" stop-color="#DA4B6A"/>
</linearGradient>
<linearGradient id="paint2_linear_1010_196" x1="0.0496921" y1="12.3146" x2="9.85231" y2="12.3146" gradientUnits="userSpaceOnUse">
<stop stop-color="#F7B3C5"/>
<stop offset="0.19" stop-color="#F7B0C2"/>
<stop offset="0.38" stop-color="#F6A4B6"/>
<stop offset="0.58" stop-color="#F390A5"/>
<stop offset="0.79" stop-color="#E7728B"/>
<stop offset="0.99" stop-color="#DC4D6C"/>
<stop offset="1" stop-color="#DA4B6A"/>
</linearGradient>
<radialGradient id="paint3_radial_1010_196" cx="0" cy="0" r="1" gradientUnits="userSpaceOnUse" gradientTransform="translate(5.78159 3.88926) scale(4.51425 4.51426)">
<stop stop-color="#F7B3C5"/>
<stop offset="0.19" stop-color="#F7B0C2"/>
<stop offset="0.38" stop-color="#F6A4B6"/>
<stop offset="0.58" stop-color="#F390A5"/>
<stop offset="0.79" stop-color="#E7728B"/>
<stop offset="0.99" stop-color="#DC4D6C"/>
<stop offset="1" stop-color="#DA4B6A"/>
</radialGradient>
<radialGradient id="paint4_radial_1010_196" cx="0" cy="0" r="1" gradientUnits="userSpaceOnUse" gradientTransform="translate(10.6657 20.9395) scale(5.58401 5.58402)">
<stop stop-color="#F7B3C5"/>
<stop offset="0.19" stop-color="#F7B0C2"/>
<stop offset="0.38" stop-color="#F6A4B6"/>
<stop offset="0.58" stop-color="#F390A5"/>
<stop offset="0.79" stop-color="#E7728B"/>
<stop offset="0.99" stop-color="#DC4D6C"/>
<stop offset="1" stop-color="#DA4B6A"/>
</radialGradient>
<linearGradient id="paint5_linear_1010_196" x1="16.6887" y1="20.4592" x2="23.8733" y2="20.4592" gradientUnits="userSpaceOnUse">
<stop stop-color="#DA4B6A"/>
<stop offset="0.01" stop-color="#DC4D6C"/>
<stop offset="0.21" stop-color="#E7728B"/>
<stop offset="0.42" stop-color="#F390A5"/>
<stop offset="0.62" stop-color="#F6A4B6"/>
<stop offset="0.81" stop-color="#F7B0C2"/>
<stop offset="1" stop-color="#F7B3C5"/>
</linearGradient>
<linearGradient id="paint6_linear_1010_196" x1="16.1467" y1="12.3146" x2="25.9503" y2="12.3146" gradientUnits="userSpaceOnUse">
<stop stop-color="#DA4B6A"/>
<stop offset="0.01" stop-color="#DC4D6C"/>
<stop offset="0.21" stop-color="#E7728B"/>
<stop offset="0.42" stop-color="#F390A5"/>
<stop offset="0.62" stop-color="#F6A4B6"/>
<stop offset="0.81" stop-color="#F7B0C2"/>
<stop offset="1" stop-color="#F7B3C5"/>
</linearGradient>
<radialGradient id="paint7_radial_1010_196" cx="0" cy="0" r="1" gradientUnits="userSpaceOnUse" gradientTransform="translate(20.3591 3.8879) scale(4.51426 4.51423)">
<stop stop-color="#F7B3C5"/>
<stop offset="0.19" stop-color="#F7B0C2"/>
<stop offset="0.38" stop-color="#F6A4B6"/>
<stop offset="0.58" stop-color="#F390A5"/>
<stop offset="0.79" stop-color="#E7728B"/>
<stop offset="0.99" stop-color="#DC4D6C"/>
<stop offset="1" stop-color="#DA4B6A"/>
</radialGradient>
<clipPath id="clip0_1010_196">
<rect width="26" height="26" fill="white"/>
</clipPath>
</defs>
</svg>
