<svg width="32" height="32" viewBox="0 0 80 80" fill="none" xmlns="http://www.w3.org/2000/svg">
<g clip-path="url(#clip0_37_98)">
<path d="M44.9744 24.1798C33.5081 24.1798 24.1794 33.5085 24.1794 44.9748C24.1794 56.4412 33.5081 65.7699 44.9744 65.7699C56.4407 65.7699 65.7695 56.4412 65.7695 44.9748C65.7695 33.5085 56.4407 24.1798 44.9744 24.1798ZM44.9744 55.7364C39.0302 55.7364 34.2129 50.919 34.2129 44.9748C34.2129 39.0306 39.0302 34.2133 44.9744 34.2133C50.9186 34.2133 55.736 39.0306 55.736 44.9748C55.736 50.919 50.9186 55.7364 44.9744 55.7364Z" fill="black"/>
<path fill-rule="evenodd" clip-rule="evenodd" d="M46.7174 20.7643V13C63.5936 13.9023 77 27.8741 77 44.9748C77 62.0756 63.5936 76.0435 46.7174 76.9497V69.1854C59.2952 68.287 69.2551 57.7772 69.2551 44.9748C69.2551 32.1725 59.2952 21.6627 46.7174 20.7643ZM26.6349 60.8519C23.3007 57.0027 21.1515 52.1001 20.7681 46.7174H13C13.4027 54.2494 16.4155 61.0842 21.136 66.3469L26.631 60.8519H26.6349ZM43.2324 76.9497V69.1854C37.8458 68.802 32.9433 66.6567 29.0941 63.3186L23.599 68.8136C28.8656 73.538 35.7005 76.5469 43.2285 76.9497H43.2324Z" fill="url(#paint0_linear_37_98)"/>
</g>
<defs>
<linearGradient id="paint0_linear_37_98" x1="47.9724" y1="17.4964" x2="16.4971" y2="48.9716" gradientUnits="userSpaceOnUse">
<stop stop-color="#0096FF"/>
<stop offset="1" stop-color="#FF1E56"/>
</linearGradient>
<clipPath id="clip0_37_98">
<rect width="80" height="80" fill="white"/>
</clipPath>
</defs>
</svg>
