<svg width="124" height="27" viewBox="0 0 124 27" fill="none" xmlns="http://www.w3.org/2000/svg">
<path d="M13.3798 4.92537C8.71796 4.92537 4.92518 8.71815 4.92518 13.38C4.92518 18.0419 8.71796 21.8347 13.3798 21.8347C18.0417 21.8347 21.8344 18.0419 21.8344 13.38C21.8344 8.71815 18.0417 4.92537 13.3798 4.92537ZM13.3798 17.7553C10.9631 17.7553 9.00447 15.7967 9.00447 13.38C9.00447 10.9633 10.9631 9.00469 13.3798 9.00469C15.7965 9.00469 17.7551 10.9633 17.7551 13.38C17.7551 15.7967 15.7965 17.7553 13.3798 17.7553Z" fill="white"/>
<path fill-rule="evenodd" clip-rule="evenodd" d="M14.0884 3.53672V0.380005C20.9497 0.746845 26.4004 6.42736 26.4004 13.38C26.4004 20.3327 20.9497 26.0116 14.0884 26.38V23.2233C19.2021 22.858 23.2515 18.585 23.2515 13.38C23.2515 8.17497 19.2021 3.90199 14.0884 3.53672ZM5.92342 19.8351C4.56784 18.2702 3.69404 16.2769 3.53817 14.0885H0.379883C0.543623 17.1507 1.76852 19.9296 3.68774 22.0692L5.92185 19.8351H5.92342ZM12.6714 26.38V23.2233C10.4814 23.0674 8.48818 22.1952 6.9232 20.838L4.6891 23.0721C6.83031 24.9929 9.60917 26.2163 12.6698 26.38H12.6714Z" fill="url(#paint0_linear_321_73)"/>
<path d="M51.9787 10.405V6.97478H35.4473V10.405H41.6878V21.8117H45.738V10.405H51.9787Z" fill="white"/>
<path d="M61.3191 22.0391C66.4025 22.0391 69.1922 19.456 69.1922 15.1991V6.97478H65.142V14.8065C65.142 17.1829 63.9021 18.5261 61.3191 18.5261C58.736 18.5261 57.4961 17.1829 57.4961 14.8065V6.97478H53.4459V15.1991C53.4459 19.456 56.2356 22.0391 61.3191 22.0391Z" fill="white"/>
<path d="M75.3921 16.8937H79.4217L82.6039 21.8117H87.2534L83.6579 16.4597C85.6829 15.7365 86.9228 14.1246 86.9228 11.9342C86.9228 8.75191 84.5464 6.97478 80.9302 6.97478H71.3419V21.8117H75.3921V16.8937ZM75.3921 13.6907V10.3637H80.7235C82.1493 10.3637 82.9345 10.9836 82.9345 12.0376C82.9345 13.0295 82.1493 13.6907 80.7235 13.6907H75.3921Z" fill="white"/>
<path d="M88.8072 21.8117H99.408C102.714 21.8117 104.615 20.2412 104.615 17.6169C104.615 15.8604 103.5 14.6619 102.177 14.1246C103.086 13.6907 104.202 12.6575 104.202 11.025C104.202 8.40062 102.342 6.97478 99.0567 6.97478H88.8072V21.8117ZM92.6921 12.7815V10.2604H98.6434C99.7594 10.2604 100.379 10.6944 100.379 11.5209C100.379 12.3475 99.7594 12.7815 98.6434 12.7815H92.6921ZM92.6921 15.8191H99.0154C100.111 15.8191 100.71 16.3563 100.71 17.1623C100.71 17.9682 100.111 18.5054 99.0154 18.5054H92.6921V15.8191Z" fill="white"/>
<path d="M114.518 6.72681C109.331 6.72681 105.591 9.97115 105.591 14.3933C105.591 18.8155 109.331 22.0597 114.518 22.0597C119.704 22.0597 123.424 18.8155 123.424 14.3933C123.424 9.97115 119.704 6.72681 114.518 6.72681ZM114.518 10.2397C117.246 10.2397 119.292 11.8516 119.292 14.3933C119.292 16.9349 117.246 18.5468 114.518 18.5468C111.791 18.5468 109.745 16.9349 109.745 14.3933C109.745 11.8516 111.791 10.2397 114.518 10.2397Z" fill="white"/>
<defs>
<linearGradient id="paint0_linear_321_73" x1="14.5986" y1="2.20809" x2="1.80171" y2="15.0049" gradientUnits="userSpaceOnUse">
<stop stop-color="#0096FF"/>
<stop offset="1" stop-color="#FF1E56"/>
</linearGradient>
</defs>
</svg>
