<svg width="40" height="32" viewBox="0 0 40 32" fill="none" xmlns="http://www.w3.org/2000/svg">
<path d="M12.371 32C27.233 32 35.363 19.6856 35.363 9.02522C35.363 8.68063 35.363 8.33111 35.3483 7.98651C36.9311 6.84069 38.2972 5.4221 39.3825 3.7972C37.904 4.4491 36.3372 4.87875 34.7329 5.0722C36.4228 4.06214 37.6884 2.47288 38.2946 0.599828C36.7069 1.54039 34.9692 2.20066 33.1576 2.55172C31.9397 1.25462 30.328 0.395329 28.5722 0.10695C26.8165 -0.181429 25.0146 0.117199 23.4457 0.956578C21.8769 1.79596 20.6286 3.12924 19.8942 4.74991C19.1598 6.37058 18.9804 8.18818 19.3836 9.92118C16.1708 9.76008 13.0278 8.92546 10.1583 7.47144C7.28889 6.01743 4.75712 3.97649 2.72724 1.48101C1.69675 3.26081 1.38226 5.3661 1.84765 7.36935C2.31303 9.37261 3.52339 11.1236 5.23295 12.2669C3.95189 12.2234 2.69898 11.8794 1.5753 11.2626V11.3734C1.57751 13.2379 2.22341 15.0444 3.40382 16.4876C4.58422 17.9308 6.22674 18.9222 8.05372 19.2942C7.36025 19.4853 6.6439 19.5805 5.92461 19.5773C5.41752 19.5788 4.91144 19.5318 4.4133 19.437C4.92967 21.042 5.93512 22.4452 7.28883 23.4502C8.64254 24.4553 10.2767 25.0117 11.9624 25.0416C9.09873 27.2908 5.56131 28.5107 1.9199 28.5048C1.27826 28.5075 0.637069 28.4705 0 28.394C3.69584 30.7503 7.988 32.0014 12.371 32Z" fill="#00ACEE"/>
</svg>
