<svg width="32" height="32" viewBox="0 0 80 80" fill="none" xmlns="http://www.w3.org/2000/svg">
<g clip-path="url(#clip0_12_27)">
<path d="M8 40V8H72V72H8" fill="#007ACC"/>
<path d="M22.032 40.112V42.72H30.352V66.4H36.256V42.72H44.576V40.16C44.576 38.72 44.576 37.552 44.512 37.52C44.512 37.472 39.44 37.456 33.28 37.456L22.08 37.504V40.128L22.032 40.112ZM59.424 37.44C61.056 37.824 62.304 38.56 63.424 39.728C64.016 40.368 64.896 41.488 64.96 41.776C64.96 41.872 62.192 43.744 60.512 44.784C60.448 44.832 60.192 44.56 59.936 44.144C59.104 42.96 58.256 42.448 56.928 42.352C55.008 42.224 53.728 43.232 53.728 44.912C53.728 45.424 53.824 45.712 54.016 46.128C54.448 47.008 55.248 47.536 57.728 48.624C62.304 50.592 64.288 51.888 65.488 53.744C66.848 55.824 67.152 59.088 66.24 61.536C65.216 64.208 62.72 66.016 59.152 66.608C58.032 66.8 55.472 66.768 54.272 66.56C51.712 66.08 49.264 64.8 47.76 63.152C47.168 62.512 46.032 60.8 46.096 60.688L46.704 60.304L49.104 58.912L50.912 57.856L51.328 58.416C51.856 59.248 53.04 60.368 53.728 60.752C55.808 61.824 58.592 61.68 59.968 60.432C60.56 59.888 60.816 59.312 60.816 58.512C60.816 57.776 60.704 57.44 60.336 56.88C59.824 56.176 58.8 55.6 55.92 54.32C52.608 52.912 51.2 52.016 49.888 50.64C49.136 49.808 48.448 48.512 48.128 47.44C47.888 46.512 47.808 44.24 48.032 43.328C48.72 40.128 51.136 37.888 54.592 37.248C55.712 37.024 58.352 37.12 59.456 37.408L59.424 37.44Z" fill="white"/>
</g>
<defs>
<clipPath id="clip0_12_27">
<rect width="80" height="80" fill="white"/>
</clipPath>
</defs>
</svg>
