<svg width="26" height="26" viewBox="0 0 26 26" fill="none" xmlns="http://www.w3.org/2000/svg">
<path d="M25.7195 3.83078L13.878 25.0054C13.6335 25.4425 13.0054 25.4451 12.7573 25.0101L0.681014 3.83282C0.410663 3.35872 0.816066 2.78446 1.35331 2.88049L13.2074 4.99935C13.2831 5.01286 13.3605 5.01273 13.4361 4.99895L25.0423 2.88353C25.5778 2.78594 25.9851 3.35575 25.7195 3.83078Z" fill="url(#paint0_linear_323_6)"/>
<path d="M18.8542 0.101307L10.0912 1.81839C9.94714 1.84661 9.8405 1.96867 9.83181 2.11515L9.29276 11.2192C9.28008 11.4337 9.47701 11.6001 9.6863 11.5518L12.1261 10.9888C12.3543 10.9361 12.5606 11.1372 12.5137 11.3667L11.7888 14.9162C11.74 15.1551 11.9643 15.3594 12.1976 15.2885L13.7045 14.8307C13.9381 14.7597 14.1626 14.9646 14.1132 15.2037L12.9613 20.7791C12.8892 21.1278 13.3531 21.318 13.5465 21.019L13.6758 20.8193L20.8164 6.56897C20.9359 6.33037 20.7297 6.05831 20.4677 6.10888L17.9564 6.59356C17.7204 6.63906 17.5196 6.41928 17.5862 6.18839L19.2253 0.506269C19.2919 0.274988 19.0904 0.0550202 18.8542 0.101307Z" fill="url(#paint1_linear_323_6)"/>
<defs>
<linearGradient id="paint0_linear_323_6" x1="0.386163" y1="-0.743194" x2="17.4187" y2="19.8453" gradientUnits="userSpaceOnUse">
<stop stop-color="#41D1FF"/>
<stop offset="1" stop-color="#BD34FE"/>
</linearGradient>
<linearGradient id="paint1_linear_323_6" x1="12.5271" y1="0.567491" x2="15.193" y2="18.8557" gradientUnits="userSpaceOnUse">
<stop stop-color="#FFEA83"/>
<stop offset="0.0833333" stop-color="#FFDD35"/>
<stop offset="1" stop-color="#FFA800"/>
</linearGradient>
</defs>
</svg>