<svg width="32" height="32" viewBox="0 0 80 80" fill="none" xmlns="http://www.w3.org/2000/svg">
<g clip-path="url(#clip0_40_247)">
<g clip-path="url(#clip1_40_247)">
<path d="M40 24.572C41.1367 24.572 42.2269 24.1204 43.0307 23.3167C43.8344 22.5129 44.286 21.4227 44.286 20.286C44.286 19.1493 43.8344 18.0591 43.0307 17.2553C42.2269 16.4516 41.1367 16 40 16C38.8633 16 37.7731 16.4516 36.9693 17.2553C36.1656 18.0591 35.714 19.1493 35.714 20.286C35.714 21.4227 36.1656 22.5129 36.9693 23.3167C37.7731 24.1204 38.8633 24.572 40 24.572ZM21.328 30.452L34.288 31.716V41.716L32.996 60.056C32.9742 60.433 33.0924 60.8047 33.3279 61.0999C33.5634 61.395 33.8996 61.5928 34.272 61.6553C34.6443 61.7178 35.0267 61.6405 35.3456 61.4384C35.6645 61.2362 35.8976 60.9234 36 60.56L39.304 44.492C39.484 43.772 40.508 43.772 40.688 44.492L44 60.556C44.0988 60.9233 44.3307 61.2407 44.6506 61.4464C44.9704 61.6522 45.3554 61.7316 45.7306 61.6693C46.1058 61.6069 46.4444 61.4072 46.6805 61.109C46.9166 60.8108 47.0333 60.4355 47.008 60.056L45.72 41.72V31.72L58.676 30.456C59.0537 30.4013 59.397 30.2065 59.6377 29.9103C59.8783 29.6142 59.9988 29.2383 59.9751 28.8574C59.9515 28.4765 59.7854 28.1184 59.5098 27.8544C59.2343 27.5903 58.8696 27.4395 58.488 27.432H21.516C21.1344 27.4395 20.7697 27.5903 20.4942 27.8544C20.2186 28.1184 20.0526 28.4765 20.0289 28.8574C20.0052 29.2383 20.1257 29.6142 20.3663 29.9103C20.607 30.2065 20.9503 30.3973 21.328 30.452Z" fill="black"/>
<path d="M40 8C31.5131 8 23.3737 11.3714 17.3726 17.3726C11.3714 23.3737 8 31.5131 8 40C8 48.4869 11.3714 56.6263 17.3726 62.6274C23.3737 68.6286 31.5131 72 40 72C48.4869 72 56.6263 68.6286 62.6274 62.6274C68.6286 56.6263 72 48.4869 72 40C72 31.5131 68.6286 23.3737 62.6274 17.3726C56.6263 11.3714 48.4869 8 40 8ZM12 40C12 32.5739 14.95 25.452 20.201 20.201C25.452 14.95 32.5739 12 40 12C47.4261 12 54.548 14.95 59.799 20.201C65.05 25.452 68 32.5739 68 40C68 47.4261 65.05 54.548 59.799 59.799C54.548 65.05 47.4261 68 40 68C32.5739 68 25.452 65.05 20.201 59.799C14.95 54.548 12 47.4261 12 40Z" fill="black"/>
</g>
</g>
<defs>
<clipPath id="clip0_40_247">
<rect width="80" height="80" fill="white"/>
</clipPath>
<clipPath id="clip1_40_247">
<rect width="64" height="64" fill="white" transform="translate(8 8)"/>
</clipPath>
</defs>
</svg>
