<svg width="32" height="32" viewBox="0 0 32 32" fill="none" xmlns="http://www.w3.org/2000/svg">
<g clip-path="url(#clip0_48_18)">
<path d="M27.2 0H4.8C2.14903 0 0 2.14903 0 4.8V27.2C0 29.851 2.14903 32 4.8 32H27.2C29.851 32 32 29.851 32 27.2V4.8C32 2.14903 29.851 0 27.2 0Z" fill="#45D354"/>
<path d="M19.25 17.0625C19.0625 16.9375 18.875 16.875 18.6875 17.125L17.9375 18.125C17.75 18.25 17.625 18.3125 17.375 18.1875C16.4375 17.6875 15.125 17.125 14 15.25C13.9375 15 14.0625 14.875 14.1875 14.75L14.75 13.875C14.875 13.75 14.8125 13.625 14.75 13.5L14 11.6875C13.8125 11.1875 13.625 11.25 13.4375 11.25H12.9375C12.8125 11.25 12.5625 11.3125 12.3125 11.5625C10.9375 12.9375 11.5 14.875 12.5 16.125C12.6875 16.375 13.9375 18.625 16.625 19.8125C18.625 20.6875 19.0625 20.5625 19.625 20.4375C20.3125 20.375 21 19.8125 21.3125 19.25C21.375 19.0625 21.6875 18.25 21.4375 18.125M16.5 24C13.9375 24 12 22.625 12 22.625L8.9375 23.4375L9.6875 20.4375C9.6875 20.4375 8.4375 18.5 8.4375 16.0625C8.4375 11.5625 12.125 7.8125 16.6875 7.8125C20.9375 7.8125 24.5625 11.125 24.5625 15.75C24.5625 20.25 20.9375 23.9375 16.5 24ZM6.5625 25.8125L11.75 24.375C13.2524 25.1441 14.9268 25.5154 16.6135 25.4533C18.3002 25.3911 19.9428 24.8977 21.3846 24.0202C22.8263 23.1426 24.019 21.9101 24.8489 20.4404C25.6788 18.9707 26.1182 17.3128 26.125 15.625C26.125 10.25 21.875 5.9375 16.5 5.9375C14.7748 5.94191 13.0809 6.39821 11.5869 7.26094C10.093 8.12368 8.85109 9.36275 7.98497 10.8548C7.11884 12.3468 6.65871 14.0396 6.65038 15.7648C6.64205 17.49 7.08582 19.1872 7.9375 20.6875" fill="white"/>
</g>
<defs>
<clipPath id="clip0_48_18">
<rect width="32" height="32" fill="white"/>
</clipPath>
</defs>
</svg>
